<svg xmlns="http://www.w3.org/2000/svg" xmlns:xlink="http://www.w3.org/1999/xlink" width="150" zoomAndPan="magnify" viewBox="0 0 112.5 30.750001" height="41" preserveAspectRatio="xMidYMid meet" version="1.0"><defs><g/><clipPath id="d76668c4f8"><path d="M 0.207031 0 L 111.796875 0 L 111.796875 30.503906 L 0.207031 30.503906 Z M 0.207031 0 " clip-rule="nonzero"/></clipPath><clipPath id="b50a4ce6ec"><path d="M 20.917969 6.472656 L 22.011719 6.472656 L 22.011719 7.664062 L 20.917969 7.664062 Z M 20.917969 6.472656 " clip-rule="nonzero"/></clipPath><clipPath id="c18d3d10b6"><path d="M 21 7.097656 C 21.492188 6.53125 21.601562 6.476562 21.691406 6.476562 C 21.792969 6.488281 21.925781 6.566406 21.957031 6.652344 C 22.003906 6.753906 21.980469 6.988281 21.902344 7.066406 C 21.824219 7.144531 21.589844 7.167969 21.492188 7.109375 C 21.414062 7.078125 21.335938 6.945312 21.324219 6.84375 C 21.3125 6.753906 21.378906 6.609375 21.457031 6.554688 C 21.523438 6.5 21.679688 6.464844 21.769531 6.5 C 21.871094 6.53125 22.003906 6.710938 22.003906 6.832031 C 22.015625 6.976562 21.8125 7.199219 21.714844 7.34375 C 21.625 7.457031 21.535156 7.566406 21.433594 7.621094 C 21.335938 7.65625 21.203125 7.679688 21.125 7.644531 C 21.035156 7.613281 20.933594 7.488281 20.921875 7.398438 C 20.902344 7.3125 21 7.097656 21 7.097656 " clip-rule="nonzero"/></clipPath><clipPath id="1a47afe560"><path d="M 15.234375 5.566406 L 25.449219 5.566406 L 25.449219 12.339844 L 15.234375 12.339844 Z M 15.234375 5.566406 " clip-rule="nonzero"/></clipPath><clipPath id="5d8d34ee6d"><path d="M 18.859375 6.570312 C 18.507812 8.710938 17.644531 10.34375 17.195312 10.886719 C 16.972656 11.109375 16.8125 11.269531 16.589844 11.335938 C 16.363281 11.398438 16.046875 11.367188 15.851562 11.269531 C 15.628906 11.144531 15.40625 10.949219 15.339844 10.726562 C 15.246094 10.472656 15.183594 10.054688 15.40625 9.734375 C 16.140625 8.808594 21.800781 7.050781 23.207031 7.050781 C 23.71875 7.050781 24.070312 7.210938 24.265625 7.433594 C 24.425781 7.59375 24.457031 7.878906 24.457031 8.105469 C 24.425781 8.328125 24.390625 8.550781 24.136719 8.746094 C 23.335938 9.320312 18.285156 9.894531 17.164062 9.800781 C 16.8125 9.800781 16.683594 9.765625 16.492188 9.609375 C 16.332031 9.480469 16.140625 9.253906 16.109375 9.03125 C 16.078125 8.777344 16.109375 8.457031 16.363281 8.136719 C 16.910156 7.496094 19.433594 6.1875 20.363281 6.121094 C 20.808594 6.089844 21.257812 6.25 21.417969 6.503906 C 21.609375 6.761719 21.640625 7.273438 21.449219 7.65625 C 21.066406 8.425781 18.796875 9.511719 18.1875 10.183594 C 17.867188 10.535156 17.835938 11.046875 17.644531 11.046875 C 17.421875 11.078125 16.910156 10.566406 16.941406 10.375 C 16.941406 10.152344 17.355469 9.992188 17.773438 9.765625 C 18.859375 9.253906 22.824219 8.039062 24.007812 7.976562 C 24.488281 7.945312 24.777344 7.945312 25 8.105469 C 25.253906 8.296875 25.480469 8.710938 25.449219 9.03125 C 25.414062 9.351562 24.9375 9.925781 24.617188 10.023438 C 24.328125 10.121094 23.847656 9.992188 23.65625 9.765625 C 23.433594 9.574219 23.273438 9.128906 23.304688 8.808594 C 23.335938 8.519531 23.625 8.136719 23.914062 8.007812 C 24.167969 7.878906 24.648438 7.914062 24.902344 8.039062 C 25.128906 8.136719 25.320312 8.328125 25.382812 8.585938 C 25.449219 8.871094 25.414062 9.449219 25.03125 9.832031 C 24.039062 10.855469 17.707031 12.550781 16.398438 12.292969 C 15.980469 12.199219 15.757812 12.007812 15.628906 11.6875 C 15.46875 11.175781 15.660156 10.054688 16.140625 9.289062 C 16.84375 8.167969 19.308594 6.539062 20.105469 6.21875 C 20.425781 6.089844 20.617188 6.058594 20.84375 6.121094 C 21.066406 6.152344 21.289062 6.3125 21.417969 6.503906 C 21.546875 6.699219 21.640625 6.984375 21.609375 7.210938 C 21.578125 7.433594 21.515625 7.625 21.289062 7.847656 C 20.714844 8.390625 18.1875 9.609375 17.421875 9.765625 C 17.101562 9.832031 16.910156 9.832031 16.71875 9.734375 C 16.460938 9.640625 16.171875 9.289062 16.109375 9.03125 C 16.046875 8.808594 16.078125 8.550781 16.238281 8.328125 C 16.460938 8.007812 17.132812 7.816406 17.898438 7.625 C 19.210938 7.273438 22.695312 6.730469 23.65625 7.050781 C 24.070312 7.144531 24.265625 7.402344 24.390625 7.625 C 24.488281 7.847656 24.457031 8.136719 24.390625 8.328125 C 24.328125 8.550781 24.230469 8.679688 23.945312 8.871094 C 23.144531 9.414062 20.011719 10.472656 18.539062 10.855469 C 17.515625 11.109375 15.949219 11.335938 15.917969 11.269531 C 15.917969 11.238281 17.195312 10.855469 17.195312 10.886719 C 17.195312 10.886719 16.398438 11.367188 16.078125 11.335938 C 15.851562 11.300781 15.597656 11.109375 15.46875 10.949219 C 15.308594 10.757812 15.246094 10.566406 15.246094 10.214844 C 15.308594 9.414062 16.398438 6.792969 17.003906 6.121094 C 17.324219 5.769531 17.707031 5.578125 17.996094 5.578125 C 18.21875 5.578125 18.476562 5.738281 18.605469 5.898438 C 18.761719 6.089844 18.859375 6.570312 18.859375 6.570312 " clip-rule="nonzero"/></clipPath><clipPath id="b83b87d01f"><path d="M 16 11 L 20 11 L 20 13 L 16 13 Z M 16 11 " clip-rule="nonzero"/></clipPath><clipPath id="f6f6f09c63"><path d="M 16.324219 11.871094 L 19.441406 10.648438 L 19.894531 11.8125 L 16.777344 13.035156 Z M 16.324219 11.871094 " clip-rule="nonzero"/></clipPath><clipPath id="59ed9eef3c"><path d="M 19.578125 11.320312 C 17.617188 12.171875 17.425781 12.296875 17.238281 12.464844 C 17.070312 12.613281 16.910156 12.964844 16.820312 12.953125 C 16.769531 12.945312 16.714844 12.863281 16.714844 12.777344 C 16.726562 12.535156 17.640625 11.410156 17.855469 11.289062 C 17.914062 11.253906 17.972656 11.253906 18.003906 11.269531 C 18.035156 11.289062 18.046875 11.347656 18.039062 11.421875 C 17.988281 11.65625 17.199219 12.910156 17.054688 12.90625 C 17.007812 12.914062 16.96875 12.84375 16.976562 12.796875 C 16.992188 12.597656 17.789062 11.9375 18.054688 11.675781 C 18.199219 11.527344 18.320312 11.347656 18.425781 11.339844 C 18.480469 11.332031 18.574219 11.414062 18.574219 11.4375 C 18.574219 11.472656 18.414062 11.550781 18.394531 11.53125 C 18.371094 11.507812 18.410156 11.335938 18.445312 11.332031 C 18.472656 11.335938 18.570312 11.429688 18.5625 11.503906 C 18.527344 11.753906 17.242188 12.929688 17.054688 12.90625 C 17.003906 12.902344 16.984375 12.851562 16.976562 12.796875 C 16.953125 12.683594 17.03125 12.484375 17.117188 12.308594 C 17.265625 12.011719 17.75 11.261719 17.902344 11.257812 C 17.964844 11.257812 18.03125 11.339844 18.039062 11.421875 C 18.042969 11.671875 17 12.953125 16.820312 12.953125 C 16.761719 12.953125 16.703125 12.867188 16.703125 12.804688 C 16.695312 12.726562 16.796875 12.589844 16.910156 12.472656 C 17.082031 12.273438 17.429688 12.03125 17.78125 11.832031 C 18.25 11.566406 19.246094 11.113281 19.496094 11.113281 C 19.566406 11.109375 19.625 11.132812 19.636719 11.164062 C 19.648438 11.195312 19.578125 11.320312 19.578125 11.320312 " clip-rule="nonzero"/></clipPath><clipPath id="00e2c1ff6f"><path d="M 23 10 L 25 10 L 25 12 L 23 12 Z M 23 10 " clip-rule="nonzero"/></clipPath><clipPath id="b9adcd0216"><path d="M 23.667969 10.367188 L 24.230469 10.179688 L 24.496094 10.96875 L 23.933594 11.15625 Z M 23.667969 10.367188 " clip-rule="nonzero"/></clipPath><clipPath id="6e8a430382"><path d="M 23.777344 10.335938 C 24.246094 10.429688 24.421875 10.707031 24.4375 10.820312 C 24.4375 10.894531 24.402344 10.996094 24.371094 11.007812 C 24.332031 11.003906 24.207031 10.839844 24.21875 10.804688 C 24.230469 10.773438 24.363281 10.742188 24.410156 10.773438 C 24.433594 10.808594 24.453125 10.90625 24.429688 10.941406 C 24.417969 10.976562 24.332031 11.003906 24.277344 10.976562 C 24.179688 10.9375 24.0625 10.621094 23.964844 10.566406 C 23.886719 10.519531 23.769531 10.589844 23.730469 10.542969 C 23.707031 10.507812 23.777344 10.335938 23.777344 10.335938 " clip-rule="nonzero"/></clipPath><clipPath id="05e9981417"><path d="M 19.203125 6.949219 L 23.238281 6.949219 L 23.238281 12.355469 L 19.203125 12.355469 Z M 19.203125 6.949219 " clip-rule="nonzero"/></clipPath><clipPath id="9a8d677691"><path d="M 21.78125 12.347656 C 19.027344 10.191406 19.027344 8.332031 19.398438 7.664062 C 19.621094 7.289062 20.367188 6.917969 20.664062 6.992188 C 21.035156 7.140625 21.707031 8.480469 21.484375 8.777344 C 21.332031 9.152344 19.847656 9.152344 19.546875 8.925781 C 19.25 8.628906 19.324219 7.738281 19.546875 7.441406 C 19.847656 7.140625 20.738281 6.992188 21.257812 7.289062 C 22.078125 7.738281 23.34375 10.265625 23.195312 11.160156 C 23.046875 11.753906 21.78125 12.347656 21.78125 12.347656 " clip-rule="nonzero"/></clipPath><clipPath id="da6cd60553"><path d="M 20.105469 10.230469 L 22.234375 10.230469 L 22.234375 12.078125 L 20.105469 12.078125 Z M 20.105469 10.230469 " clip-rule="nonzero"/></clipPath><clipPath id="3d94e045f1"><path d="M 22.226562 10.9375 C 21.257812 12.425781 20.367188 12.125 20.21875 11.828125 C 19.996094 11.53125 20.144531 10.5625 20.441406 10.339844 C 20.738281 10.117188 21.929688 10.414062 21.929688 10.414062 " clip-rule="nonzero"/></clipPath><clipPath id="9e53db0f27"><path d="M 19.957031 10.15625 L 22.082031 10.15625 L 22.082031 12 L 19.957031 12 Z M 19.957031 10.15625 " clip-rule="nonzero"/></clipPath><clipPath id="d73c46fe77"><path d="M 22.078125 10.863281 C 21.109375 12.347656 20.21875 12.050781 20.070312 11.753906 C 19.847656 11.457031 19.996094 10.488281 20.292969 10.265625 C 20.589844 10.042969 21.78125 10.339844 21.78125 10.339844 " clip-rule="nonzero"/></clipPath><clipPath id="b549daae07"><path d="M 20.03125 10.273438 L 22.15625 10.273438 L 22.15625 12.089844 L 20.03125 12.089844 Z M 20.03125 10.273438 " clip-rule="nonzero"/></clipPath><clipPath id="811d8d6b73"><path d="M 22.152344 10.9375 C 21.183594 12.425781 20.292969 12.125 20.144531 11.828125 C 19.921875 11.53125 20.070312 10.636719 20.367188 10.414062 C 20.664062 10.117188 21.855469 10.488281 21.855469 10.488281 " clip-rule="nonzero"/></clipPath><clipPath id="773a2463ce"><path d="M 20.03125 10.1875 L 22.15625 10.1875 L 22.15625 12 L 20.03125 12 Z M 20.03125 10.1875 " clip-rule="nonzero"/></clipPath><clipPath id="58e2e347d7"><path d="M 22.152344 10.863281 C 21.257812 12.347656 20.367188 12.050781 20.144531 11.753906 C 19.921875 11.457031 20.144531 10.488281 20.441406 10.265625 C 20.738281 10.042969 21.855469 10.414062 21.855469 10.414062 " clip-rule="nonzero"/></clipPath><clipPath id="c71eccc88e"><path d="M 20.105469 10.378906 L 22.234375 10.378906 L 22.234375 12.164062 L 20.105469 12.164062 Z M 20.105469 10.378906 " clip-rule="nonzero"/></clipPath><clipPath id="32ad43b925"><path d="M 22.226562 11.011719 C 21.257812 12.5 20.367188 12.199219 20.21875 11.902344 C 19.996094 11.605469 20.21875 10.714844 20.441406 10.488281 C 20.738281 10.265625 21.929688 10.5625 21.929688 10.5625 " clip-rule="nonzero"/></clipPath><clipPath id="0b5318592f"><path d="M 20 10.378906 L 22.082031 10.378906 L 22.082031 12.195312 L 20 12.195312 Z M 20 10.378906 " clip-rule="nonzero"/></clipPath><clipPath id="f53abfb6be"><path d="M 22.078125 11.011719 C 21.183594 12.5 20.292969 12.273438 20.070312 11.902344 C 19.921875 11.605469 20.070312 10.714844 20.367188 10.488281 C 20.664062 10.265625 21.855469 10.5625 21.855469 10.5625 " clip-rule="nonzero"/></clipPath><clipPath id="6109be26a1"><path d="M 20.136719 10.601562 L 22.234375 10.601562 L 22.234375 12.417969 L 20.136719 12.417969 Z M 20.136719 10.601562 " clip-rule="nonzero"/></clipPath><clipPath id="e62c23ff24"><path d="M 22.226562 11.234375 C 21.332031 12.722656 20.441406 12.5 20.21875 12.125 C 20.070312 11.828125 20.21875 10.9375 20.515625 10.714844 C 20.8125 10.488281 22.003906 10.789062 22.003906 10.789062 " clip-rule="nonzero"/></clipPath><clipPath id="bbcc7568d7"><path d="M 19.214844 9.933594 L 21.339844 9.933594 L 21.339844 11.75 L 19.214844 11.75 Z M 19.214844 9.933594 " clip-rule="nonzero"/></clipPath><clipPath id="5fb229dcdd"><path d="M 21.332031 10.5625 C 20.367188 12.050781 19.472656 11.828125 19.324219 11.457031 C 19.101562 11.160156 19.25 10.265625 19.546875 10.042969 C 19.847656 9.820312 21.035156 10.117188 21.035156 10.117188 " clip-rule="nonzero"/></clipPath><clipPath id="4fc0bfdb3b"><path d="M 19 9.933594 L 21.117188 9.933594 L 21.117188 11.75 L 19 11.75 Z M 19 9.933594 " clip-rule="nonzero"/></clipPath><clipPath id="25882c35a6"><path d="M 21.109375 10.5625 C 20.144531 12.050781 19.25 11.828125 19.101562 11.457031 C 18.878906 11.160156 19.101562 10.265625 19.324219 10.042969 C 19.621094 9.820312 20.8125 10.117188 20.8125 10.117188 " clip-rule="nonzero"/></clipPath><clipPath id="68f1e33fa3"><path d="M 19 10.007812 L 21.117188 10.007812 L 21.117188 11.824219 L 19 11.824219 Z M 19 10.007812 " clip-rule="nonzero"/></clipPath><clipPath id="b14aeeeb8f"><path d="M 21.109375 10.636719 C 20.144531 12.125 19.25 11.902344 19.101562 11.53125 C 18.878906 11.234375 19.101562 10.339844 19.324219 10.117188 C 19.621094 9.894531 20.8125 10.191406 20.8125 10.191406 " clip-rule="nonzero"/></clipPath><clipPath id="5d2671f533"><path d="M 16.90625 10.601562 L 19.035156 10.601562 L 19.035156 12.386719 L 16.90625 12.386719 Z M 16.90625 10.601562 " clip-rule="nonzero"/></clipPath><clipPath id="ac6f8800fc"><path d="M 19.027344 11.234375 C 18.058594 12.722656 17.242188 12.425781 17.019531 12.125 C 16.796875 11.828125 17.019531 10.9375 17.316406 10.714844 C 17.539062 10.488281 18.730469 10.789062 18.730469 10.789062 " clip-rule="nonzero"/></clipPath><clipPath id="59482bb31a"><path d="M 16.640625 10.558594 L 18.734375 10.558594 L 18.734375 12.375 L 16.640625 12.375 Z M 16.640625 10.558594 " clip-rule="nonzero"/></clipPath><clipPath id="3fe7e610b3"><path d="M 18.730469 11.234375 C 17.835938 12.722656 16.945312 12.425781 16.722656 12.125 C 16.574219 11.828125 16.722656 10.863281 17.019531 10.636719 C 17.316406 10.414062 18.507812 10.789062 18.507812 10.789062 " clip-rule="nonzero"/></clipPath><clipPath id="eff46d36f4"><path d="M 17.503906 11.886719 L 17.859375 11.886719 L 17.859375 12.164062 L 17.503906 12.164062 Z M 17.503906 11.886719 " clip-rule="nonzero"/></clipPath><clipPath id="ec72dced63"><path d="M 17.835938 12.050781 C 17.167969 12.347656 17.761719 11.902344 17.761719 11.902344 " clip-rule="nonzero"/></clipPath><clipPath id="9680b4056a"><path d="M 17.578125 11.960938 L 17.933594 11.960938 L 17.933594 12.210938 L 17.578125 12.210938 Z M 17.578125 11.960938 " clip-rule="nonzero"/></clipPath><clipPath id="d43c1dbc7b"><path d="M 17.910156 12.125 C 17.242188 12.347656 17.835938 11.976562 17.835938 11.976562 " clip-rule="nonzero"/></clipPath><clipPath id="f2a5b18e73"><path d="M 17.652344 11.886719 L 18 11.886719 L 18 12.164062 L 17.652344 12.164062 Z M 17.652344 11.886719 " clip-rule="nonzero"/></clipPath><clipPath id="e937f7c30c"><path d="M 17.984375 12.050781 C 17.316406 12.347656 17.910156 11.902344 17.910156 11.902344 " clip-rule="nonzero"/></clipPath><clipPath id="f42e5b91aa"><path d="M 23.308594 8.164062 L 23.660156 8.164062 L 23.660156 8.417969 L 23.308594 8.417969 Z M 23.308594 8.164062 " clip-rule="nonzero"/></clipPath><clipPath id="8cb6ccb047"><path d="M 23.640625 8.332031 C 22.96875 8.554688 23.566406 8.183594 23.566406 8.183594 " clip-rule="nonzero"/></clipPath><clipPath id="cb5020c9c6"><path d="M 17.429688 12.109375 L 17.785156 12.109375 L 17.785156 12.363281 L 17.429688 12.363281 Z M 17.429688 12.109375 " clip-rule="nonzero"/></clipPath><clipPath id="4a2fd62f90"><path d="M 17.761719 12.273438 C 17.09375 12.5 17.6875 12.125 17.6875 12.125 " clip-rule="nonzero"/></clipPath><clipPath id="9d9b0a1cf4"><path d="M 49.148438 2.4375 L 49.550781 2.4375 L 49.550781 2.714844 L 49.148438 2.714844 Z M 49.148438 2.4375 " clip-rule="nonzero"/></clipPath><clipPath id="8767fa6e0d"><path d="M 49.53125 2.605469 C 48.785156 2.902344 49.378906 2.453125 49.378906 2.453125 " clip-rule="nonzero"/></clipPath><clipPath id="7d8d120461"><path d="M 17.578125 12.035156 L 17.933594 12.035156 L 17.933594 12.289062 L 17.578125 12.289062 Z M 17.578125 12.035156 " clip-rule="nonzero"/></clipPath><clipPath id="d958fe5542"><path d="M 17.910156 12.199219 C 17.242188 12.425781 17.835938 12.050781 17.835938 12.050781 " clip-rule="nonzero"/></clipPath><clipPath id="7b6ef87d13"><path d="M 18.398438 11.960938 L 18.75 11.960938 L 18.75 12.238281 L 18.398438 12.238281 Z M 18.398438 11.960938 " clip-rule="nonzero"/></clipPath><clipPath id="798fc40524"><path d="M 18.730469 12.125 C 18.058594 12.425781 18.65625 11.976562 18.65625 11.976562 " clip-rule="nonzero"/></clipPath><clipPath id="2a9ee11a49"><path d="M 18.273438 12.035156 L 18.675781 12.035156 L 18.675781 12.3125 L 18.273438 12.3125 Z M 18.273438 12.035156 " clip-rule="nonzero"/></clipPath><clipPath id="11060110fc"><path d="M 18.65625 12.199219 C 17.910156 12.5 18.507812 12.050781 18.507812 12.050781 " clip-rule="nonzero"/></clipPath><clipPath id="efc97b3996"><path d="M 18.097656 12.109375 L 18.453125 12.109375 L 18.453125 12.386719 L 18.097656 12.386719 Z M 18.097656 12.109375 " clip-rule="nonzero"/></clipPath><clipPath id="72ff179f0e"><path d="M 18.433594 12.273438 C 17.761719 12.574219 18.359375 12.125 18.359375 12.125 " clip-rule="nonzero"/></clipPath><clipPath id="1eeec1f521"><path d="M 18.023438 11.960938 L 18.378906 11.960938 L 18.378906 12.238281 L 18.023438 12.238281 Z M 18.023438 11.960938 " clip-rule="nonzero"/></clipPath><clipPath id="abfee2d043"><path d="M 18.359375 12.125 C 17.6875 12.425781 18.285156 11.976562 18.285156 11.976562 " clip-rule="nonzero"/></clipPath><clipPath id="0d1a540bcc"><path d="M 17.800781 12.109375 L 18.15625 12.109375 L 18.15625 12.363281 L 17.800781 12.363281 Z M 17.800781 12.109375 " clip-rule="nonzero"/></clipPath><clipPath id="d2eefe8383"><path d="M 18.136719 12.273438 C 17.464844 12.5 18.058594 12.125 18.058594 12.125 " clip-rule="nonzero"/></clipPath><clipPath id="a809241ae8"><path d="M 17.652344 11.960938 L 18 11.960938 L 18 12.238281 L 17.652344 12.238281 Z M 17.652344 11.960938 " clip-rule="nonzero"/></clipPath><clipPath id="14e7e366e2"><path d="M 17.984375 12.125 C 17.316406 12.425781 17.910156 11.976562 17.910156 11.976562 " clip-rule="nonzero"/></clipPath><clipPath id="ca816fa069"><path d="M 17.578125 12.109375 L 17.933594 12.109375 L 17.933594 12.386719 L 17.578125 12.386719 Z M 17.578125 12.109375 " clip-rule="nonzero"/></clipPath><clipPath id="632bafb8be"><path d="M 17.910156 12.273438 C 17.242188 12.574219 17.835938 12.125 17.835938 12.125 " clip-rule="nonzero"/></clipPath><clipPath id="79024553ce"><path d="M 18.023438 12.035156 L 18.378906 12.035156 L 18.378906 12.3125 L 18.023438 12.3125 Z M 18.023438 12.035156 " clip-rule="nonzero"/></clipPath><clipPath id="ba95bb4490"><path d="M 18.359375 12.199219 C 17.6875 12.5 18.285156 12.050781 18.285156 12.050781 " clip-rule="nonzero"/></clipPath><clipPath id="1bd33bfc35"><path d="M 17.800781 12.109375 L 18.15625 12.109375 L 18.15625 12.363281 L 17.800781 12.363281 Z M 17.800781 12.109375 " clip-rule="nonzero"/></clipPath><clipPath id="208fd81831"><path d="M 18.136719 12.273438 C 17.464844 12.5 18.058594 12.125 18.058594 12.125 " clip-rule="nonzero"/></clipPath><clipPath id="c6b580a191"><path d="M 17.800781 12.109375 L 18.15625 12.109375 L 18.15625 12.386719 L 17.800781 12.386719 Z M 17.800781 12.109375 " clip-rule="nonzero"/></clipPath><clipPath id="28ab3dd435"><path d="M 18.136719 12.273438 C 17.464844 12.574219 18.058594 12.125 18.058594 12.125 " clip-rule="nonzero"/></clipPath><clipPath id="f76f7ddb9f"><path d="M 17.726562 12.109375 L 18.082031 12.109375 L 18.082031 12.386719 L 17.726562 12.386719 Z M 17.726562 12.109375 " clip-rule="nonzero"/></clipPath><clipPath id="274f6b3f07"><path d="M 18.058594 12.273438 C 17.390625 12.574219 17.984375 12.125 17.984375 12.125 " clip-rule="nonzero"/></clipPath><clipPath id="ebf79ab59e"><path d="M 17.875 12.183594 L 18.230469 12.183594 L 18.230469 12.4375 L 17.875 12.4375 Z M 17.875 12.183594 " clip-rule="nonzero"/></clipPath><clipPath id="d8c930856a"><path d="M 18.210938 12.347656 C 17.539062 12.574219 18.136719 12.199219 18.136719 12.199219 " clip-rule="nonzero"/></clipPath><clipPath id="dee40d4973"><path d="M 17.675781 12.183594 L 18.082031 12.183594 L 18.082031 12.460938 L 17.675781 12.460938 Z M 17.675781 12.183594 " clip-rule="nonzero"/></clipPath><clipPath id="0705dcadf3"><path d="M 18.058594 12.347656 C 17.316406 12.648438 17.910156 12.199219 17.910156 12.199219 " clip-rule="nonzero"/></clipPath><clipPath id="8d5edb5b83"><path d="M 17.578125 12.332031 L 17.933594 12.332031 L 17.933594 12.585938 L 17.578125 12.585938 Z M 17.578125 12.332031 " clip-rule="nonzero"/></clipPath><clipPath id="94ed4ef2e2"><path d="M 17.910156 12.5 C 17.242188 12.722656 17.835938 12.347656 17.835938 12.347656 " clip-rule="nonzero"/></clipPath><clipPath id="f59002a6fb"><path d="M 17.726562 11.960938 L 18.082031 11.960938 L 18.082031 12.289062 L 17.726562 12.289062 Z M 17.726562 11.960938 " clip-rule="nonzero"/></clipPath><clipPath id="1ef60c8780"><path d="M 18.058594 12.199219 C 17.390625 12.425781 17.984375 11.976562 17.984375 11.976562 " clip-rule="nonzero"/></clipPath><clipPath id="8e243b0060"><path d="M 20.035156 11.664062 L 20.386719 11.664062 L 20.386719 11.914062 L 20.035156 11.914062 Z M 20.035156 11.664062 " clip-rule="nonzero"/></clipPath><clipPath id="cf10b8ef2c"><path d="M 20.367188 11.828125 C 19.695312 12.050781 20.292969 11.679688 20.292969 11.679688 " clip-rule="nonzero"/></clipPath><clipPath id="04091b3af3"><path d="M 17.429688 11.511719 L 17.785156 11.511719 L 17.785156 11.792969 L 17.429688 11.792969 Z M 17.429688 11.511719 " clip-rule="nonzero"/></clipPath><clipPath id="776685da10"><path d="M 17.761719 11.679688 C 17.09375 11.976562 17.6875 11.53125 17.6875 11.53125 " clip-rule="nonzero"/></clipPath><clipPath id="0069dda5cb"><path d="M 15.34375 7.066406 L 19.882812 7.066406 L 19.882812 11.605469 L 15.34375 11.605469 Z M 15.34375 7.066406 " clip-rule="nonzero"/></clipPath><clipPath id="20a5821e23"><path d="M 17.613281 7.066406 L 18.335938 8.613281 L 19.882812 9.335938 L 18.335938 10.058594 L 17.613281 11.605469 L 16.890625 10.058594 L 15.34375 9.335938 L 16.890625 8.613281 Z M 17.613281 7.066406 " clip-rule="nonzero"/></clipPath></defs><g clip-path="url(#d76668c4f8)"><path fill="#ffffff" d="M 0.207031 0 L 111.796875 0 L 111.796875 30.503906 L 0.207031 30.503906 Z M 0.207031 0 " fill-opacity="1" fill-rule="nonzero"/><path fill="#f5e9dc" d="M 0.207031 0 L 111.796875 0 L 111.796875 30.503906 L 0.207031 30.503906 Z M 0.207031 0 " fill-opacity="1" fill-rule="nonzero"/></g><g fill="#e07a5f" fill-opacity="0.4"><g transform="translate(3.922945, 23.520174)"><g><path d="M 7.75 -10.625 C 8.488281 -10.625 9.164062 -10.410156 9.78125 -9.984375 C 10.40625 -9.566406 10.898438 -9 11.265625 -8.28125 C 11.640625 -7.5625 11.828125 -6.769531 11.828125 -5.90625 C 11.828125 -5.050781 11.625 -4.265625 11.21875 -3.546875 C 10.8125 -2.828125 10.296875 -2.253906 9.671875 -1.828125 C 9.054688 -1.410156 8.414062 -1.203125 7.75 -1.203125 C 7.144531 -1.203125 6.664062 -1.226562 6.3125 -1.28125 C 5.96875 -1.332031 5.6875 -1.378906 5.46875 -1.421875 C 5.25 -1.472656 5.019531 -1.5 4.78125 -1.5 C 4.550781 -1.5 4.226562 -1.472656 3.8125 -1.421875 C 3.40625 -1.378906 3.007812 -1.332031 2.625 -1.28125 C 2.25 -1.226562 2 -1.203125 1.875 -1.203125 C 1.476562 -1.203125 1.078125 -1.257812 0.671875 -1.375 C 0.273438 -1.488281 0.0507812 -1.742188 0 -2.140625 C -0.0195312 -2.328125 0.0195312 -2.460938 0.125 -2.546875 C 0.238281 -2.640625 0.359375 -2.75 0.484375 -2.875 C 0.679688 -3.0625 0.820312 -3.394531 0.90625 -3.875 C 0.988281 -4.351562 1.039062 -4.890625 1.0625 -5.484375 C 1.082031 -6.085938 1.09375 -6.644531 1.09375 -7.15625 C 1.09375 -8.039062 1.082031 -8.816406 1.0625 -9.484375 C 1.039062 -10.160156 0.882812 -10.675781 0.59375 -11.03125 C 0.46875 -11.238281 0.332031 -11.40625 0.1875 -11.53125 C 0.0390625 -11.65625 -0.0195312 -11.828125 0 -12.046875 C 0.03125 -12.316406 0.1875 -12.5625 0.46875 -12.78125 C 0.75 -13 1.078125 -13.195312 1.453125 -13.375 C 1.828125 -13.550781 2.164062 -13.722656 2.46875 -13.890625 C 2.707031 -14.015625 3.019531 -14.164062 3.40625 -14.34375 C 3.800781 -14.53125 4.179688 -14.671875 4.546875 -14.765625 C 4.921875 -14.867188 5.21875 -14.863281 5.4375 -14.75 C 5.65625 -14.644531 5.707031 -14.378906 5.59375 -13.953125 C 5.582031 -13.785156 5.535156 -13.289062 5.453125 -12.46875 C 5.367188 -11.65625 5.3125 -10.71875 5.28125 -9.65625 C 5.625 -9.957031 6.003906 -10.191406 6.421875 -10.359375 C 6.847656 -10.535156 7.289062 -10.625 7.75 -10.625 Z M 6.3125 -2.46875 C 6.78125 -2.707031 7.144531 -3.066406 7.40625 -3.546875 C 7.664062 -4.023438 7.828125 -4.5625 7.890625 -5.15625 C 7.960938 -5.757812 7.960938 -6.347656 7.890625 -6.921875 C 7.816406 -7.503906 7.675781 -8.007812 7.46875 -8.4375 C 7.269531 -8.863281 7.03125 -9.144531 6.75 -9.28125 C 6.46875 -9.414062 6.15625 -9.332031 5.8125 -9.03125 C 5.5625 -8.8125 5.398438 -8.484375 5.328125 -8.046875 C 5.253906 -7.609375 5.21875 -6.929688 5.21875 -6.015625 C 5.21875 -4.523438 5.316406 -3.523438 5.515625 -3.015625 C 5.710938 -2.503906 5.976562 -2.320312 6.3125 -2.46875 Z M 6.3125 -2.46875 "/></g></g></g><g fill="#e07a5f" fill-opacity="0.4"><g transform="translate(15.962551, 23.520174)"><g><path d="M 2.828125 -10.625 C 2.265625 -10.625 1.785156 -10.816406 1.390625 -11.203125 C 1.003906 -11.597656 0.8125 -12.078125 0.8125 -12.640625 C 0.8125 -13.203125 1.003906 -13.675781 1.390625 -14.0625 C 1.785156 -14.457031 2.265625 -14.65625 2.828125 -14.65625 C 3.390625 -14.65625 3.863281 -14.457031 4.25 -14.0625 C 4.644531 -13.675781 4.84375 -13.203125 4.84375 -12.640625 C 4.84375 -12.078125 4.644531 -11.597656 4.25 -11.203125 C 3.863281 -10.816406 3.390625 -10.625 2.828125 -10.625 Z M 5.59375 -9.765625 C 5.5625 -9.597656 5.515625 -9.296875 5.453125 -8.859375 C 5.390625 -8.421875 5.328125 -7.914062 5.265625 -7.34375 C 5.210938 -6.78125 5.191406 -6.195312 5.203125 -5.59375 C 5.210938 -5 5.265625 -4.453125 5.359375 -3.953125 C 5.460938 -3.453125 5.644531 -3.078125 5.90625 -2.828125 C 6.03125 -2.703125 6.15625 -2.597656 6.28125 -2.515625 C 6.40625 -2.429688 6.453125 -2.304688 6.421875 -2.140625 C 6.378906 -1.867188 6.160156 -1.664062 5.765625 -1.53125 C 5.378906 -1.394531 4.9375 -1.304688 4.4375 -1.265625 C 3.945312 -1.222656 3.519531 -1.203125 3.15625 -1.203125 C 2.8125 -1.203125 2.394531 -1.222656 1.90625 -1.265625 C 1.414062 -1.304688 0.984375 -1.394531 0.609375 -1.53125 C 0.234375 -1.664062 0.03125 -1.867188 0 -2.140625 C -0.0195312 -2.328125 0.0195312 -2.460938 0.125 -2.546875 C 0.238281 -2.640625 0.359375 -2.75 0.484375 -2.875 C 0.628906 -3.007812 0.742188 -3.25 0.828125 -3.59375 C 0.910156 -3.945312 0.957031 -4.34375 0.96875 -4.78125 C 0.988281 -5.21875 0.96875 -5.625 0.90625 -6 C 0.84375 -6.382812 0.738281 -6.664062 0.59375 -6.84375 C 0.46875 -7.03125 0.332031 -7.191406 0.1875 -7.328125 C 0.0390625 -7.460938 -0.0195312 -7.628906 0 -7.828125 C 0.03125 -8.097656 0.1875 -8.347656 0.46875 -8.578125 C 0.75 -8.804688 1.078125 -9.007812 1.453125 -9.1875 C 1.828125 -9.375 2.164062 -9.546875 2.46875 -9.703125 C 2.707031 -9.816406 3.019531 -9.960938 3.40625 -10.140625 C 3.800781 -10.316406 4.179688 -10.457031 4.546875 -10.5625 C 4.921875 -10.664062 5.21875 -10.664062 5.4375 -10.5625 C 5.65625 -10.457031 5.707031 -10.191406 5.59375 -9.765625 Z M 5.59375 -9.765625 "/></g></g></g><g fill="#e07a5f" fill-opacity="0.4"><g transform="translate(22.512313, 23.520174)"><g><path d="M 8.40625 -4.328125 C 8.550781 -4.703125 8.8125 -4.957031 9.1875 -5.09375 C 9.570312 -5.226562 9.972656 -5.265625 10.390625 -5.203125 C 10.804688 -5.140625 11.160156 -5 11.453125 -4.78125 C 11.753906 -4.5625 11.90625 -4.28125 11.90625 -3.9375 C 11.90625 -3.46875 11.734375 -3.023438 11.390625 -2.609375 C 11.046875 -2.191406 10.613281 -1.851562 10.09375 -1.59375 C 9.582031 -1.332031 9.0625 -1.203125 8.53125 -1.203125 L 2.046875 -1.203125 C 1.484375 -1.203125 1.078125 -1.289062 0.828125 -1.46875 C 0.585938 -1.644531 0.46875 -1.851562 0.46875 -2.09375 C 0.46875 -2.332031 0.539062 -2.53125 0.6875 -2.6875 C 0.789062 -2.8125 1.023438 -3.078125 1.390625 -3.484375 C 1.753906 -3.898438 2.171875 -4.367188 2.640625 -4.890625 C 3.109375 -5.421875 3.5625 -5.929688 4 -6.421875 C 4.445312 -6.921875 4.820312 -7.335938 5.125 -7.671875 C 5.425781 -8.015625 5.578125 -8.1875 5.578125 -8.1875 C 5.773438 -8.40625 5.945312 -8.617188 6.09375 -8.828125 C 6.238281 -9.035156 6.296875 -9.207031 6.265625 -9.34375 C 6.234375 -9.488281 6.054688 -9.5625 5.734375 -9.5625 C 5.265625 -9.5625 4.835938 -9.378906 4.453125 -9.015625 C 4.078125 -8.660156 3.757812 -8.15625 3.5 -7.5 C 3.363281 -7.125 3.101562 -6.867188 2.71875 -6.734375 C 2.332031 -6.597656 1.929688 -6.5625 1.515625 -6.625 C 1.097656 -6.6875 0.738281 -6.828125 0.4375 -7.046875 C 0.144531 -7.265625 0 -7.546875 0 -7.890625 C 0 -8.359375 0.171875 -8.800781 0.515625 -9.21875 C 0.859375 -9.632812 1.285156 -9.972656 1.796875 -10.234375 C 2.316406 -10.492188 2.84375 -10.625 3.375 -10.625 L 9.875 -10.625 C 10.445312 -10.625 10.851562 -10.535156 11.09375 -10.359375 C 11.332031 -10.179688 11.453125 -9.972656 11.453125 -9.734375 C 11.460938 -9.492188 11.390625 -9.285156 11.234375 -9.109375 C 11.117188 -8.984375 10.875 -8.710938 10.5 -8.296875 C 10.132812 -7.890625 9.710938 -7.425781 9.234375 -6.90625 C 8.765625 -6.394531 8.304688 -5.882812 7.859375 -5.375 C 7.421875 -4.875 7.050781 -4.457031 6.75 -4.125 C 6.457031 -3.800781 6.3125 -3.640625 6.3125 -3.640625 C 6.125 -3.441406 5.957031 -3.234375 5.8125 -3.015625 C 5.664062 -2.796875 5.609375 -2.613281 5.640625 -2.46875 C 5.679688 -2.320312 5.859375 -2.25 6.171875 -2.25 C 6.640625 -2.25 7.0625 -2.429688 7.4375 -2.796875 C 7.820312 -3.160156 8.144531 -3.671875 8.40625 -4.328125 Z M 8.40625 -4.328125 "/></g></g></g><g fill="#e07a5f" fill-opacity="0.4"><g transform="translate(34.579107, 23.520174)"><g><path d="M 13.75 -10.625 C 14.53125 -10.625 15.125 -10.425781 15.53125 -10.03125 C 15.945312 -9.632812 16.253906 -9.117188 16.453125 -8.484375 C 16.648438 -7.847656 16.8125 -7.171875 16.9375 -6.453125 C 17.0625 -5.742188 17.207031 -5.066406 17.375 -4.421875 C 17.550781 -3.773438 17.820312 -3.242188 18.1875 -2.828125 C 18.300781 -2.703125 18.425781 -2.597656 18.5625 -2.515625 C 18.695312 -2.429688 18.742188 -2.304688 18.703125 -2.140625 C 18.671875 -1.867188 18.5 -1.664062 18.1875 -1.53125 C 17.875 -1.394531 17.515625 -1.304688 17.109375 -1.265625 C 16.703125 -1.222656 16.316406 -1.203125 15.953125 -1.203125 C 15.609375 -1.203125 15.1875 -1.269531 14.6875 -1.40625 C 14.195312 -1.539062 13.757812 -1.796875 13.375 -2.171875 C 13 -2.554688 12.8125 -3.117188 12.8125 -3.859375 L 12.8125 -7.609375 C 12.8125 -8.285156 12.726562 -8.664062 12.5625 -8.75 C 12.394531 -8.84375 12.207031 -8.734375 12 -8.421875 C 11.789062 -8.117188 11.601562 -7.691406 11.4375 -7.140625 C 11.28125 -6.597656 11.203125 -6.03125 11.203125 -5.4375 L 11.203125 -3.859375 C 11.203125 -3.484375 11.300781 -3.210938 11.5 -3.046875 C 11.695312 -2.878906 11.894531 -2.742188 12.09375 -2.640625 C 12.289062 -2.546875 12.375 -2.378906 12.34375 -2.140625 C 12.300781 -1.867188 12.125 -1.664062 11.8125 -1.53125 C 11.507812 -1.394531 11.148438 -1.304688 10.734375 -1.265625 C 10.316406 -1.222656 9.925781 -1.203125 9.5625 -1.203125 C 9.21875 -1.203125 8.84375 -1.269531 8.4375 -1.40625 C 8.03125 -1.539062 7.679688 -1.796875 7.390625 -2.171875 C 7.097656 -2.554688 6.953125 -3.117188 6.953125 -3.859375 L 6.953125 -7.609375 C 6.953125 -8.191406 6.890625 -8.554688 6.765625 -8.703125 C 6.640625 -8.847656 6.484375 -8.820312 6.296875 -8.625 C 6.117188 -8.4375 5.941406 -8.148438 5.765625 -7.765625 C 5.597656 -7.390625 5.457031 -6.960938 5.34375 -6.484375 C 5.238281 -6.003906 5.195312 -5.546875 5.21875 -5.109375 C 5.257812 -4.640625 5.328125 -4.195312 5.421875 -3.78125 C 5.523438 -3.363281 5.6875 -3.046875 5.90625 -2.828125 C 6.03125 -2.703125 6.15625 -2.597656 6.28125 -2.515625 C 6.40625 -2.429688 6.453125 -2.304688 6.421875 -2.140625 C 6.378906 -1.867188 6.160156 -1.664062 5.765625 -1.53125 C 5.378906 -1.394531 4.9375 -1.304688 4.4375 -1.265625 C 3.945312 -1.222656 3.519531 -1.203125 3.15625 -1.203125 C 2.8125 -1.203125 2.394531 -1.222656 1.90625 -1.265625 C 1.414062 -1.304688 0.984375 -1.394531 0.609375 -1.53125 C 0.234375 -1.664062 0.03125 -1.867188 0 -2.140625 C -0.0195312 -2.328125 0.0195312 -2.460938 0.125 -2.546875 C 0.238281 -2.640625 0.359375 -2.75 0.484375 -2.875 C 0.628906 -3.007812 0.742188 -3.25 0.828125 -3.59375 C 0.910156 -3.945312 0.957031 -4.34375 0.96875 -4.78125 C 0.988281 -5.21875 0.96875 -5.625 0.90625 -6 C 0.84375 -6.382812 0.738281 -6.664062 0.59375 -6.84375 C 0.46875 -7.03125 0.332031 -7.191406 0.1875 -7.328125 C 0.0390625 -7.460938 -0.0195312 -7.628906 0 -7.828125 C 0.03125 -8.097656 0.1875 -8.347656 0.46875 -8.578125 C 0.75 -8.804688 1.078125 -9.007812 1.453125 -9.1875 C 1.828125 -9.375 2.164062 -9.546875 2.46875 -9.703125 C 2.707031 -9.816406 3.019531 -9.960938 3.40625 -10.140625 C 3.800781 -10.316406 4.179688 -10.457031 4.546875 -10.5625 C 4.921875 -10.664062 5.21875 -10.664062 5.4375 -10.5625 C 5.65625 -10.457031 5.707031 -10.191406 5.59375 -9.765625 L 5.40625 -8.5625 C 5.644531 -9.144531 5.972656 -9.632812 6.390625 -10.03125 C 6.804688 -10.425781 7.3125 -10.625 7.90625 -10.625 C 8.726562 -10.625 9.40625 -10.34375 9.9375 -9.78125 C 10.46875 -9.21875 10.828125 -8.515625 11.015625 -7.671875 L 11.015625 -7.71875 C 11.171875 -8.476562 11.484375 -9.148438 11.953125 -9.734375 C 12.429688 -10.328125 13.03125 -10.625 13.75 -10.625 Z M 13.75 -10.625 "/></g></g></g><g fill="#e07a5f" fill-opacity="0.4"><g transform="translate(53.521789, 23.520174)"><g><path d="M 5.328125 -10.625 C 6.410156 -10.625 7.273438 -10.476562 7.921875 -10.1875 C 8.566406 -9.90625 9.046875 -9.519531 9.359375 -9.03125 C 9.679688 -8.539062 9.90625 -8.007812 10.03125 -7.4375 C 10.15625 -6.863281 10.242188 -6.285156 10.296875 -5.703125 C 10.359375 -5.128906 10.445312 -4.597656 10.5625 -4.109375 C 10.675781 -3.617188 10.890625 -3.226562 11.203125 -2.9375 C 11.347656 -2.789062 11.503906 -2.671875 11.671875 -2.578125 C 11.847656 -2.492188 11.914062 -2.347656 11.875 -2.140625 C 11.84375 -1.890625 11.625 -1.671875 11.21875 -1.484375 C 10.820312 -1.296875 10.363281 -1.203125 9.84375 -1.203125 C 9.375 -1.203125 8.9375 -1.289062 8.53125 -1.46875 C 8.132812 -1.644531 7.773438 -1.816406 7.453125 -1.984375 C 7.140625 -2.160156 6.847656 -2.25 6.578125 -2.25 C 6.328125 -2.25 6.066406 -2.160156 5.796875 -1.984375 C 5.523438 -1.816406 5.191406 -1.644531 4.796875 -1.46875 C 4.410156 -1.289062 3.914062 -1.203125 3.3125 -1.203125 C 2.550781 -1.203125 1.894531 -1.347656 1.34375 -1.640625 C 0.789062 -1.941406 0.398438 -2.34375 0.171875 -2.84375 C -0.046875 -3.34375 -0.0507812 -3.890625 0.15625 -4.484375 C 0.363281 -5.023438 0.722656 -5.414062 1.234375 -5.65625 C 1.753906 -5.894531 2.335938 -6.070312 2.984375 -6.1875 C 3.640625 -6.300781 4.257812 -6.453125 4.84375 -6.640625 C 5.457031 -6.835938 5.851562 -7.132812 6.03125 -7.53125 C 6.21875 -7.925781 6.253906 -8.320312 6.140625 -8.71875 C 6.035156 -9.125 5.847656 -9.390625 5.578125 -9.515625 C 5.304688 -9.640625 5.109375 -9.59375 4.984375 -9.375 C 4.867188 -9.15625 4.785156 -8.882812 4.734375 -8.5625 C 4.679688 -8.238281 4.609375 -7.96875 4.515625 -7.75 C 4.390625 -7.40625 4.140625 -7.164062 3.765625 -7.03125 C 3.390625 -6.894531 2.988281 -6.851562 2.5625 -6.90625 C 2.144531 -6.957031 1.78125 -7.09375 1.46875 -7.3125 C 1.15625 -7.53125 0.988281 -7.820312 0.96875 -8.1875 C 0.957031 -8.550781 1.175781 -8.96875 1.625 -9.4375 C 1.96875 -9.78125 2.445312 -10.0625 3.0625 -10.28125 C 3.6875 -10.507812 4.441406 -10.625 5.328125 -10.625 Z M 4.078125 -4 C 4.128906 -3.613281 4.335938 -3.359375 4.703125 -3.234375 C 5.066406 -3.109375 5.410156 -3.070312 5.734375 -3.125 C 5.878906 -3.164062 5.992188 -3.242188 6.078125 -3.359375 C 6.160156 -3.472656 6.207031 -3.566406 6.21875 -3.640625 C 6.3125 -4.128906 6.351562 -4.5625 6.34375 -4.9375 C 6.332031 -5.320312 6.300781 -5.632812 6.25 -5.875 C 6.226562 -6 6.160156 -6.066406 6.046875 -6.078125 C 5.929688 -6.085938 5.78125 -6 5.59375 -5.8125 C 5.394531 -5.613281 5.171875 -5.429688 4.921875 -5.265625 C 4.671875 -5.109375 4.457031 -4.929688 4.28125 -4.734375 C 4.113281 -4.535156 4.046875 -4.289062 4.078125 -4 Z M 4.078125 -4 "/></g></g></g><g fill="#e07a5f" fill-opacity="0.4"><g transform="translate(65.208093, 23.520174)"><g><path d="M 7.71875 -10.625 C 8.46875 -10.625 9.148438 -10.410156 9.765625 -9.984375 C 10.378906 -9.566406 10.863281 -9 11.21875 -8.28125 C 11.582031 -7.5625 11.765625 -6.769531 11.765625 -5.90625 C 11.765625 -5.050781 11.5625 -4.265625 11.15625 -3.546875 C 10.75 -2.828125 10.210938 -2.253906 9.546875 -1.828125 C 8.890625 -1.410156 8.179688 -1.203125 7.421875 -1.203125 C 6.753906 -1.203125 6.25 -1.257812 5.90625 -1.375 C 5.5625 -1.488281 5.34375 -1.582031 5.25 -1.65625 C 5.28125 -0.9375 5.34375 -0.304688 5.4375 0.234375 C 5.539062 0.785156 5.695312 1.171875 5.90625 1.390625 C 6.03125 1.515625 6.15625 1.613281 6.28125 1.6875 C 6.40625 1.757812 6.453125 1.882812 6.421875 2.0625 C 6.378906 2.332031 6.160156 2.535156 5.765625 2.671875 C 5.378906 2.804688 4.9375 2.894531 4.4375 2.9375 C 3.945312 2.988281 3.519531 3.015625 3.15625 3.015625 C 2.8125 3.015625 2.394531 2.988281 1.90625 2.9375 C 1.414062 2.894531 0.984375 2.804688 0.609375 2.671875 C 0.234375 2.535156 0.03125 2.332031 0 2.0625 C -0.0195312 1.863281 0.0195312 1.722656 0.125 1.640625 C 0.238281 1.554688 0.359375 1.453125 0.484375 1.328125 C 0.679688 1.148438 0.820312 0.820312 0.90625 0.34375 C 0.988281 -0.132812 1.039062 -0.671875 1.0625 -1.265625 C 1.082031 -1.867188 1.09375 -2.4375 1.09375 -2.96875 C 1.09375 -3.832031 1.082031 -4.601562 1.0625 -5.28125 C 1.039062 -5.96875 0.882812 -6.488281 0.59375 -6.84375 C 0.46875 -7.03125 0.332031 -7.191406 0.1875 -7.328125 C 0.0390625 -7.460938 -0.0195312 -7.628906 0 -7.828125 C 0.03125 -8.097656 0.1875 -8.347656 0.46875 -8.578125 C 0.75 -8.804688 1.078125 -9.007812 1.453125 -9.1875 C 1.828125 -9.375 2.164062 -9.546875 2.46875 -9.703125 C 2.6875 -9.816406 2.976562 -9.957031 3.34375 -10.125 C 3.707031 -10.300781 4.066406 -10.4375 4.421875 -10.53125 C 4.785156 -10.632812 5.085938 -10.65625 5.328125 -10.59375 C 5.578125 -10.539062 5.6875 -10.335938 5.65625 -9.984375 C 6.289062 -10.410156 6.976562 -10.625 7.71875 -10.625 Z M 6.25 -2.46875 C 6.757812 -2.707031 7.144531 -3.085938 7.40625 -3.609375 C 7.664062 -4.140625 7.820312 -4.726562 7.875 -5.375 C 7.9375 -6.03125 7.910156 -6.65625 7.796875 -7.25 C 7.691406 -7.851562 7.519531 -8.347656 7.28125 -8.734375 C 7.050781 -9.128906 6.769531 -9.328125 6.4375 -9.328125 C 6.164062 -9.328125 5.9375 -9.1875 5.75 -8.90625 C 5.5625 -8.625 5.457031 -8.347656 5.4375 -8.078125 C 5.363281 -7.472656 5.304688 -6.800781 5.265625 -6.0625 C 5.234375 -5.320312 5.21875 -4.5 5.21875 -3.59375 C 5.21875 -3.082031 5.359375 -2.75 5.640625 -2.59375 C 5.921875 -2.4375 6.125 -2.394531 6.25 -2.46875 Z M 6.25 -2.46875 "/></g></g></g><g fill="#e07a5f" fill-opacity="0.4"><g transform="translate(77.247699, 23.520174)"><g><path d="M 7.71875 -10.625 C 8.46875 -10.625 9.148438 -10.410156 9.765625 -9.984375 C 10.378906 -9.566406 10.863281 -9 11.21875 -8.28125 C 11.582031 -7.5625 11.765625 -6.769531 11.765625 -5.90625 C 11.765625 -5.050781 11.5625 -4.265625 11.15625 -3.546875 C 10.75 -2.828125 10.210938 -2.253906 9.546875 -1.828125 C 8.890625 -1.410156 8.179688 -1.203125 7.421875 -1.203125 C 6.753906 -1.203125 6.25 -1.257812 5.90625 -1.375 C 5.5625 -1.488281 5.34375 -1.582031 5.25 -1.65625 C 5.28125 -0.9375 5.34375 -0.304688 5.4375 0.234375 C 5.539062 0.785156 5.695312 1.171875 5.90625 1.390625 C 6.03125 1.515625 6.15625 1.613281 6.28125 1.6875 C 6.40625 1.757812 6.453125 1.882812 6.421875 2.0625 C 6.378906 2.332031 6.160156 2.535156 5.765625 2.671875 C 5.378906 2.804688 4.9375 2.894531 4.4375 2.9375 C 3.945312 2.988281 3.519531 3.015625 3.15625 3.015625 C 2.8125 3.015625 2.394531 2.988281 1.90625 2.9375 C 1.414062 2.894531 0.984375 2.804688 0.609375 2.671875 C 0.234375 2.535156 0.03125 2.332031 0 2.0625 C -0.0195312 1.863281 0.0195312 1.722656 0.125 1.640625 C 0.238281 1.554688 0.359375 1.453125 0.484375 1.328125 C 0.679688 1.148438 0.820312 0.820312 0.90625 0.34375 C 0.988281 -0.132812 1.039062 -0.671875 1.0625 -1.265625 C 1.082031 -1.867188 1.09375 -2.4375 1.09375 -2.96875 C 1.09375 -3.832031 1.082031 -4.601562 1.0625 -5.28125 C 1.039062 -5.96875 0.882812 -6.488281 0.59375 -6.84375 C 0.46875 -7.03125 0.332031 -7.191406 0.1875 -7.328125 C 0.0390625 -7.460938 -0.0195312 -7.628906 0 -7.828125 C 0.03125 -8.097656 0.1875 -8.347656 0.46875 -8.578125 C 0.75 -8.804688 1.078125 -9.007812 1.453125 -9.1875 C 1.828125 -9.375 2.164062 -9.546875 2.46875 -9.703125 C 2.6875 -9.816406 2.976562 -9.957031 3.34375 -10.125 C 3.707031 -10.300781 4.066406 -10.4375 4.421875 -10.53125 C 4.785156 -10.632812 5.085938 -10.65625 5.328125 -10.59375 C 5.578125 -10.539062 5.6875 -10.335938 5.65625 -9.984375 C 6.289062 -10.410156 6.976562 -10.625 7.71875 -10.625 Z M 6.25 -2.46875 C 6.757812 -2.707031 7.144531 -3.085938 7.40625 -3.609375 C 7.664062 -4.140625 7.820312 -4.726562 7.875 -5.375 C 7.9375 -6.03125 7.910156 -6.65625 7.796875 -7.25 C 7.691406 -7.851562 7.519531 -8.347656 7.28125 -8.734375 C 7.050781 -9.128906 6.769531 -9.328125 6.4375 -9.328125 C 6.164062 -9.328125 5.9375 -9.1875 5.75 -8.90625 C 5.5625 -8.625 5.457031 -8.347656 5.4375 -8.078125 C 5.363281 -7.472656 5.304688 -6.800781 5.265625 -6.0625 C 5.234375 -5.320312 5.21875 -4.5 5.21875 -3.59375 C 5.21875 -3.082031 5.359375 -2.75 5.640625 -2.59375 C 5.921875 -2.4375 6.125 -2.394531 6.25 -2.46875 Z M 6.25 -2.46875 "/></g></g></g><g fill="#e07a5f" fill-opacity="0.4"><g transform="translate(89.287305, 23.520174)"><g><path d="M 9.296875 -5.46875 C 9.492188 -5.695312 9.675781 -5.757812 9.84375 -5.65625 C 10.019531 -5.5625 10.09375 -5.398438 10.0625 -5.171875 L 10 -4.890625 C 9.84375 -4.179688 9.523438 -3.550781 9.046875 -3 C 8.578125 -2.445312 8 -2.007812 7.3125 -1.6875 C 6.625 -1.363281 5.875 -1.203125 5.0625 -1.203125 C 4.132812 -1.203125 3.289062 -1.410156 2.53125 -1.828125 C 1.769531 -2.253906 1.15625 -2.828125 0.6875 -3.546875 C 0.226562 -4.265625 0 -5.050781 0 -5.90625 C 0 -6.769531 0.226562 -7.5625 0.6875 -8.28125 C 1.15625 -9 1.769531 -9.566406 2.53125 -9.984375 C 3.289062 -10.410156 4.132812 -10.625 5.0625 -10.625 C 5.96875 -10.625 6.796875 -10.453125 7.546875 -10.109375 C 8.296875 -9.765625 8.832031 -9.273438 9.15625 -8.640625 C 9.363281 -8.242188 9.394531 -7.820312 9.25 -7.375 C 9.101562 -6.9375 8.835938 -6.523438 8.453125 -6.140625 C 8.078125 -5.765625 7.632812 -5.457031 7.125 -5.21875 C 6.613281 -4.976562 6.101562 -4.859375 5.59375 -4.859375 C 5.363281 -4.859375 5.132812 -4.875 4.90625 -4.90625 C 4.675781 -4.945312 4.472656 -5.003906 4.296875 -5.078125 C 4.566406 -4.484375 4.988281 -4.101562 5.5625 -3.9375 C 6.132812 -3.78125 6.753906 -3.832031 7.421875 -4.09375 C 8.085938 -4.351562 8.710938 -4.8125 9.296875 -5.46875 Z M 5.0625 -9.5625 C 4.820312 -9.5625 4.625 -9.394531 4.46875 -9.0625 C 4.3125 -8.726562 4.195312 -8.328125 4.125 -7.859375 C 4.0625 -7.398438 4.03125 -6.972656 4.03125 -6.578125 C 4.03125 -6.304688 4.054688 -6.046875 4.109375 -5.796875 C 4.117188 -5.828125 4.171875 -5.863281 4.265625 -5.90625 C 4.679688 -6.15625 4.984375 -6.484375 5.171875 -6.890625 C 5.367188 -7.296875 5.484375 -7.703125 5.515625 -8.109375 C 5.554688 -8.523438 5.53125 -8.867188 5.4375 -9.140625 C 5.34375 -9.421875 5.21875 -9.5625 5.0625 -9.5625 Z M 5.0625 -9.5625 "/></g></g></g><g fill="#e07a5f" fill-opacity="0.4"><g transform="translate(99.587555, 23.520174)"><g><path d="M 10.734375 -9.40625 C 10.921875 -9.164062 10.976562 -8.882812 10.90625 -8.5625 C 10.832031 -8.238281 10.679688 -7.921875 10.453125 -7.609375 C 10.222656 -7.304688 9.945312 -7.066406 9.625 -6.890625 C 9.3125 -6.722656 8.988281 -6.671875 8.65625 -6.734375 C 8.320312 -6.796875 8.007812 -7.035156 7.71875 -7.453125 C 7.5 -7.753906 7.265625 -8.039062 7.015625 -8.3125 C 6.773438 -8.59375 6.476562 -8.734375 6.125 -8.734375 C 5.988281 -8.734375 5.828125 -8.660156 5.640625 -8.515625 C 5.453125 -8.378906 5.335938 -8.078125 5.296875 -7.609375 C 5.265625 -7.035156 5.242188 -6.429688 5.234375 -5.796875 C 5.222656 -5.160156 5.265625 -4.570312 5.359375 -4.03125 C 5.460938 -3.5 5.644531 -3.097656 5.90625 -2.828125 C 6.03125 -2.703125 6.15625 -2.597656 6.28125 -2.515625 C 6.40625 -2.429688 6.453125 -2.304688 6.421875 -2.140625 C 6.378906 -1.867188 6.160156 -1.664062 5.765625 -1.53125 C 5.378906 -1.394531 4.9375 -1.304688 4.4375 -1.265625 C 3.945312 -1.222656 3.519531 -1.203125 3.15625 -1.203125 C 2.8125 -1.203125 2.394531 -1.222656 1.90625 -1.265625 C 1.414062 -1.304688 0.984375 -1.394531 0.609375 -1.53125 C 0.234375 -1.664062 0.03125 -1.867188 0 -2.140625 C -0.0195312 -2.328125 0.0195312 -2.460938 0.125 -2.546875 C 0.238281 -2.640625 0.359375 -2.75 0.484375 -2.875 C 0.628906 -3.007812 0.742188 -3.25 0.828125 -3.59375 C 0.910156 -3.945312 0.957031 -4.34375 0.96875 -4.78125 C 0.988281 -5.21875 0.96875 -5.625 0.90625 -6 C 0.84375 -6.382812 0.738281 -6.664062 0.59375 -6.84375 C 0.46875 -7.03125 0.332031 -7.191406 0.1875 -7.328125 C 0.0390625 -7.460938 -0.0195312 -7.628906 0 -7.828125 C 0.03125 -8.097656 0.1875 -8.347656 0.46875 -8.578125 C 0.75 -8.804688 1.078125 -9.007812 1.453125 -9.1875 C 1.828125 -9.375 2.164062 -9.546875 2.46875 -9.703125 C 2.707031 -9.816406 3.019531 -9.960938 3.40625 -10.140625 C 3.800781 -10.316406 4.179688 -10.457031 4.546875 -10.5625 C 4.921875 -10.664062 5.21875 -10.664062 5.4375 -10.5625 C 5.65625 -10.457031 5.707031 -10.191406 5.59375 -9.765625 C 5.59375 -9.722656 5.585938 -9.675781 5.578125 -9.625 C 5.578125 -9.570312 5.566406 -9.5 5.546875 -9.40625 C 5.859375 -9.769531 6.25 -10.0625 6.71875 -10.28125 C 7.1875 -10.507812 7.648438 -10.625 8.109375 -10.625 C 8.773438 -10.625 9.320312 -10.5 9.75 -10.25 C 10.1875 -10 10.515625 -9.71875 10.734375 -9.40625 Z M 10.734375 -9.40625 "/></g></g></g><g fill="#8b5e3c" fill-opacity="1"><g transform="translate(2.721321, 22.31855)"><g><path d="M 7.75 -10.625 C 8.488281 -10.625 9.164062 -10.410156 9.78125 -9.984375 C 10.40625 -9.566406 10.898438 -9 11.265625 -8.28125 C 11.640625 -7.5625 11.828125 -6.769531 11.828125 -5.90625 C 11.828125 -5.050781 11.625 -4.265625 11.21875 -3.546875 C 10.8125 -2.828125 10.296875 -2.253906 9.671875 -1.828125 C 9.054688 -1.410156 8.414062 -1.203125 7.75 -1.203125 C 7.144531 -1.203125 6.664062 -1.226562 6.3125 -1.28125 C 5.96875 -1.332031 5.6875 -1.378906 5.46875 -1.421875 C 5.25 -1.472656 5.019531 -1.5 4.78125 -1.5 C 4.550781 -1.5 4.226562 -1.472656 3.8125 -1.421875 C 3.40625 -1.378906 3.007812 -1.332031 2.625 -1.28125 C 2.25 -1.226562 2 -1.203125 1.875 -1.203125 C 1.476562 -1.203125 1.078125 -1.257812 0.671875 -1.375 C 0.273438 -1.488281 0.0507812 -1.742188 0 -2.140625 C -0.0195312 -2.328125 0.0195312 -2.460938 0.125 -2.546875 C 0.238281 -2.640625 0.359375 -2.75 0.484375 -2.875 C 0.679688 -3.0625 0.820312 -3.394531 0.90625 -3.875 C 0.988281 -4.351562 1.039062 -4.890625 1.0625 -5.484375 C 1.082031 -6.085938 1.09375 -6.644531 1.09375 -7.15625 C 1.09375 -8.039062 1.082031 -8.816406 1.0625 -9.484375 C 1.039062 -10.160156 0.882812 -10.675781 0.59375 -11.03125 C 0.46875 -11.238281 0.332031 -11.40625 0.1875 -11.53125 C 0.0390625 -11.65625 -0.0195312 -11.828125 0 -12.046875 C 0.03125 -12.316406 0.1875 -12.5625 0.46875 -12.78125 C 0.75 -13 1.078125 -13.195312 1.453125 -13.375 C 1.828125 -13.550781 2.164062 -13.722656 2.46875 -13.890625 C 2.707031 -14.015625 3.019531 -14.164062 3.40625 -14.34375 C 3.800781 -14.53125 4.179688 -14.671875 4.546875 -14.765625 C 4.921875 -14.867188 5.21875 -14.863281 5.4375 -14.75 C 5.65625 -14.644531 5.707031 -14.378906 5.59375 -13.953125 C 5.582031 -13.785156 5.535156 -13.289062 5.453125 -12.46875 C 5.367188 -11.65625 5.3125 -10.71875 5.28125 -9.65625 C 5.625 -9.957031 6.003906 -10.191406 6.421875 -10.359375 C 6.847656 -10.535156 7.289062 -10.625 7.75 -10.625 Z M 6.3125 -2.46875 C 6.78125 -2.707031 7.144531 -3.066406 7.40625 -3.546875 C 7.664062 -4.023438 7.828125 -4.5625 7.890625 -5.15625 C 7.960938 -5.757812 7.960938 -6.347656 7.890625 -6.921875 C 7.816406 -7.503906 7.675781 -8.007812 7.46875 -8.4375 C 7.269531 -8.863281 7.03125 -9.144531 6.75 -9.28125 C 6.46875 -9.414062 6.15625 -9.332031 5.8125 -9.03125 C 5.5625 -8.8125 5.398438 -8.484375 5.328125 -8.046875 C 5.253906 -7.609375 5.21875 -6.929688 5.21875 -6.015625 C 5.21875 -4.523438 5.316406 -3.523438 5.515625 -3.015625 C 5.710938 -2.503906 5.976562 -2.320312 6.3125 -2.46875 Z M 6.3125 -2.46875 "/></g></g></g><g fill="#8b5e3c" fill-opacity="1"><g transform="translate(14.760927, 22.31855)"><g><path d="M 2.828125 -10.625 C 2.265625 -10.625 1.785156 -10.816406 1.390625 -11.203125 C 1.003906 -11.597656 0.8125 -12.078125 0.8125 -12.640625 C 0.8125 -13.203125 1.003906 -13.675781 1.390625 -14.0625 C 1.785156 -14.457031 2.265625 -14.65625 2.828125 -14.65625 C 3.390625 -14.65625 3.863281 -14.457031 4.25 -14.0625 C 4.644531 -13.675781 4.84375 -13.203125 4.84375 -12.640625 C 4.84375 -12.078125 4.644531 -11.597656 4.25 -11.203125 C 3.863281 -10.816406 3.390625 -10.625 2.828125 -10.625 Z M 5.59375 -9.765625 C 5.5625 -9.597656 5.515625 -9.296875 5.453125 -8.859375 C 5.390625 -8.421875 5.328125 -7.914062 5.265625 -7.34375 C 5.210938 -6.78125 5.191406 -6.195312 5.203125 -5.59375 C 5.210938 -5 5.265625 -4.453125 5.359375 -3.953125 C 5.460938 -3.453125 5.644531 -3.078125 5.90625 -2.828125 C 6.03125 -2.703125 6.15625 -2.597656 6.28125 -2.515625 C 6.40625 -2.429688 6.453125 -2.304688 6.421875 -2.140625 C 6.378906 -1.867188 6.160156 -1.664062 5.765625 -1.53125 C 5.378906 -1.394531 4.9375 -1.304688 4.4375 -1.265625 C 3.945312 -1.222656 3.519531 -1.203125 3.15625 -1.203125 C 2.8125 -1.203125 2.394531 -1.222656 1.90625 -1.265625 C 1.414062 -1.304688 0.984375 -1.394531 0.609375 -1.53125 C 0.234375 -1.664062 0.03125 -1.867188 0 -2.140625 C -0.0195312 -2.328125 0.0195312 -2.460938 0.125 -2.546875 C 0.238281 -2.640625 0.359375 -2.75 0.484375 -2.875 C 0.628906 -3.007812 0.742188 -3.25 0.828125 -3.59375 C 0.910156 -3.945312 0.957031 -4.34375 0.96875 -4.78125 C 0.988281 -5.21875 0.96875 -5.625 0.90625 -6 C 0.84375 -6.382812 0.738281 -6.664062 0.59375 -6.84375 C 0.46875 -7.03125 0.332031 -7.191406 0.1875 -7.328125 C 0.0390625 -7.460938 -0.0195312 -7.628906 0 -7.828125 C 0.03125 -8.097656 0.1875 -8.347656 0.46875 -8.578125 C 0.75 -8.804688 1.078125 -9.007812 1.453125 -9.1875 C 1.828125 -9.375 2.164062 -9.546875 2.46875 -9.703125 C 2.707031 -9.816406 3.019531 -9.960938 3.40625 -10.140625 C 3.800781 -10.316406 4.179688 -10.457031 4.546875 -10.5625 C 4.921875 -10.664062 5.21875 -10.664062 5.4375 -10.5625 C 5.65625 -10.457031 5.707031 -10.191406 5.59375 -9.765625 Z M 5.59375 -9.765625 "/></g></g></g><g fill="#8b5e3c" fill-opacity="1"><g transform="translate(21.310689, 22.31855)"><g><path d="M 8.40625 -4.328125 C 8.550781 -4.703125 8.8125 -4.957031 9.1875 -5.09375 C 9.570312 -5.226562 9.972656 -5.265625 10.390625 -5.203125 C 10.804688 -5.140625 11.160156 -5 11.453125 -4.78125 C 11.753906 -4.5625 11.90625 -4.28125 11.90625 -3.9375 C 11.90625 -3.46875 11.734375 -3.023438 11.390625 -2.609375 C 11.046875 -2.191406 10.613281 -1.851562 10.09375 -1.59375 C 9.582031 -1.332031 9.0625 -1.203125 8.53125 -1.203125 L 2.046875 -1.203125 C 1.484375 -1.203125 1.078125 -1.289062 0.828125 -1.46875 C 0.585938 -1.644531 0.46875 -1.851562 0.46875 -2.09375 C 0.46875 -2.332031 0.539062 -2.53125 0.6875 -2.6875 C 0.789062 -2.8125 1.023438 -3.078125 1.390625 -3.484375 C 1.753906 -3.898438 2.171875 -4.367188 2.640625 -4.890625 C 3.109375 -5.421875 3.5625 -5.929688 4 -6.421875 C 4.445312 -6.921875 4.820312 -7.335938 5.125 -7.671875 C 5.425781 -8.015625 5.578125 -8.1875 5.578125 -8.1875 C 5.773438 -8.40625 5.945312 -8.617188 6.09375 -8.828125 C 6.238281 -9.035156 6.296875 -9.207031 6.265625 -9.34375 C 6.234375 -9.488281 6.054688 -9.5625 5.734375 -9.5625 C 5.265625 -9.5625 4.835938 -9.378906 4.453125 -9.015625 C 4.078125 -8.660156 3.757812 -8.15625 3.5 -7.5 C 3.363281 -7.125 3.101562 -6.867188 2.71875 -6.734375 C 2.332031 -6.597656 1.929688 -6.5625 1.515625 -6.625 C 1.097656 -6.6875 0.738281 -6.828125 0.4375 -7.046875 C 0.144531 -7.265625 0 -7.546875 0 -7.890625 C 0 -8.359375 0.171875 -8.800781 0.515625 -9.21875 C 0.859375 -9.632812 1.285156 -9.972656 1.796875 -10.234375 C 2.316406 -10.492188 2.84375 -10.625 3.375 -10.625 L 9.875 -10.625 C 10.445312 -10.625 10.851562 -10.535156 11.09375 -10.359375 C 11.332031 -10.179688 11.453125 -9.972656 11.453125 -9.734375 C 11.460938 -9.492188 11.390625 -9.285156 11.234375 -9.109375 C 11.117188 -8.984375 10.875 -8.710938 10.5 -8.296875 C 10.132812 -7.890625 9.710938 -7.425781 9.234375 -6.90625 C 8.765625 -6.394531 8.304688 -5.882812 7.859375 -5.375 C 7.421875 -4.875 7.050781 -4.457031 6.75 -4.125 C 6.457031 -3.800781 6.3125 -3.640625 6.3125 -3.640625 C 6.125 -3.441406 5.957031 -3.234375 5.8125 -3.015625 C 5.664062 -2.796875 5.609375 -2.613281 5.640625 -2.46875 C 5.679688 -2.320312 5.859375 -2.25 6.171875 -2.25 C 6.640625 -2.25 7.0625 -2.429688 7.4375 -2.796875 C 7.820312 -3.160156 8.144531 -3.671875 8.40625 -4.328125 Z M 8.40625 -4.328125 "/></g></g></g><g fill="#8b5e3c" fill-opacity="1"><g transform="translate(33.377483, 22.31855)"><g><path d="M 13.75 -10.625 C 14.53125 -10.625 15.125 -10.425781 15.53125 -10.03125 C 15.945312 -9.632812 16.253906 -9.117188 16.453125 -8.484375 C 16.648438 -7.847656 16.8125 -7.171875 16.9375 -6.453125 C 17.0625 -5.742188 17.207031 -5.066406 17.375 -4.421875 C 17.550781 -3.773438 17.820312 -3.242188 18.1875 -2.828125 C 18.300781 -2.703125 18.425781 -2.597656 18.5625 -2.515625 C 18.695312 -2.429688 18.742188 -2.304688 18.703125 -2.140625 C 18.671875 -1.867188 18.5 -1.664062 18.1875 -1.53125 C 17.875 -1.394531 17.515625 -1.304688 17.109375 -1.265625 C 16.703125 -1.222656 16.316406 -1.203125 15.953125 -1.203125 C 15.609375 -1.203125 15.1875 -1.269531 14.6875 -1.40625 C 14.195312 -1.539062 13.757812 -1.796875 13.375 -2.171875 C 13 -2.554688 12.8125 -3.117188 12.8125 -3.859375 L 12.8125 -7.609375 C 12.8125 -8.285156 12.726562 -8.664062 12.5625 -8.75 C 12.394531 -8.84375 12.207031 -8.734375 12 -8.421875 C 11.789062 -8.117188 11.601562 -7.691406 11.4375 -7.140625 C 11.28125 -6.597656 11.203125 -6.03125 11.203125 -5.4375 L 11.203125 -3.859375 C 11.203125 -3.484375 11.300781 -3.210938 11.5 -3.046875 C 11.695312 -2.878906 11.894531 -2.742188 12.09375 -2.640625 C 12.289062 -2.546875 12.375 -2.378906 12.34375 -2.140625 C 12.300781 -1.867188 12.125 -1.664062 11.8125 -1.53125 C 11.507812 -1.394531 11.148438 -1.304688 10.734375 -1.265625 C 10.316406 -1.222656 9.925781 -1.203125 9.5625 -1.203125 C 9.21875 -1.203125 8.84375 -1.269531 8.4375 -1.40625 C 8.03125 -1.539062 7.679688 -1.796875 7.390625 -2.171875 C 7.097656 -2.554688 6.953125 -3.117188 6.953125 -3.859375 L 6.953125 -7.609375 C 6.953125 -8.191406 6.890625 -8.554688 6.765625 -8.703125 C 6.640625 -8.847656 6.484375 -8.820312 6.296875 -8.625 C 6.117188 -8.4375 5.941406 -8.148438 5.765625 -7.765625 C 5.597656 -7.390625 5.457031 -6.960938 5.34375 -6.484375 C 5.238281 -6.003906 5.195312 -5.546875 5.21875 -5.109375 C 5.257812 -4.640625 5.328125 -4.195312 5.421875 -3.78125 C 5.523438 -3.363281 5.6875 -3.046875 5.90625 -2.828125 C 6.03125 -2.703125 6.15625 -2.597656 6.28125 -2.515625 C 6.40625 -2.429688 6.453125 -2.304688 6.421875 -2.140625 C 6.378906 -1.867188 6.160156 -1.664062 5.765625 -1.53125 C 5.378906 -1.394531 4.9375 -1.304688 4.4375 -1.265625 C 3.945312 -1.222656 3.519531 -1.203125 3.15625 -1.203125 C 2.8125 -1.203125 2.394531 -1.222656 1.90625 -1.265625 C 1.414062 -1.304688 0.984375 -1.394531 0.609375 -1.53125 C 0.234375 -1.664062 0.03125 -1.867188 0 -2.140625 C -0.0195312 -2.328125 0.0195312 -2.460938 0.125 -2.546875 C 0.238281 -2.640625 0.359375 -2.75 0.484375 -2.875 C 0.628906 -3.007812 0.742188 -3.25 0.828125 -3.59375 C 0.910156 -3.945312 0.957031 -4.34375 0.96875 -4.78125 C 0.988281 -5.21875 0.96875 -5.625 0.90625 -6 C 0.84375 -6.382812 0.738281 -6.664062 0.59375 -6.84375 C 0.46875 -7.03125 0.332031 -7.191406 0.1875 -7.328125 C 0.0390625 -7.460938 -0.0195312 -7.628906 0 -7.828125 C 0.03125 -8.097656 0.1875 -8.347656 0.46875 -8.578125 C 0.75 -8.804688 1.078125 -9.007812 1.453125 -9.1875 C 1.828125 -9.375 2.164062 -9.546875 2.46875 -9.703125 C 2.707031 -9.816406 3.019531 -9.960938 3.40625 -10.140625 C 3.800781 -10.316406 4.179688 -10.457031 4.546875 -10.5625 C 4.921875 -10.664062 5.21875 -10.664062 5.4375 -10.5625 C 5.65625 -10.457031 5.707031 -10.191406 5.59375 -9.765625 L 5.40625 -8.5625 C 5.644531 -9.144531 5.972656 -9.632812 6.390625 -10.03125 C 6.804688 -10.425781 7.3125 -10.625 7.90625 -10.625 C 8.726562 -10.625 9.40625 -10.34375 9.9375 -9.78125 C 10.46875 -9.21875 10.828125 -8.515625 11.015625 -7.671875 L 11.015625 -7.71875 C 11.171875 -8.476562 11.484375 -9.148438 11.953125 -9.734375 C 12.429688 -10.328125 13.03125 -10.625 13.75 -10.625 Z M 13.75 -10.625 "/></g></g></g><g fill="#8b5e3c" fill-opacity="1"><g transform="translate(52.320165, 22.31855)"><g><path d="M 5.328125 -10.625 C 6.410156 -10.625 7.273438 -10.476562 7.921875 -10.1875 C 8.566406 -9.90625 9.046875 -9.519531 9.359375 -9.03125 C 9.679688 -8.539062 9.90625 -8.007812 10.03125 -7.4375 C 10.15625 -6.863281 10.242188 -6.285156 10.296875 -5.703125 C 10.359375 -5.128906 10.445312 -4.597656 10.5625 -4.109375 C 10.675781 -3.617188 10.890625 -3.226562 11.203125 -2.9375 C 11.347656 -2.789062 11.503906 -2.671875 11.671875 -2.578125 C 11.847656 -2.492188 11.914062 -2.347656 11.875 -2.140625 C 11.84375 -1.890625 11.625 -1.671875 11.21875 -1.484375 C 10.820312 -1.296875 10.363281 -1.203125 9.84375 -1.203125 C 9.375 -1.203125 8.9375 -1.289062 8.53125 -1.46875 C 8.132812 -1.644531 7.773438 -1.816406 7.453125 -1.984375 C 7.140625 -2.160156 6.847656 -2.25 6.578125 -2.25 C 6.328125 -2.25 6.066406 -2.160156 5.796875 -1.984375 C 5.523438 -1.816406 5.191406 -1.644531 4.796875 -1.46875 C 4.410156 -1.289062 3.914062 -1.203125 3.3125 -1.203125 C 2.550781 -1.203125 1.894531 -1.347656 1.34375 -1.640625 C 0.789062 -1.941406 0.398438 -2.34375 0.171875 -2.84375 C -0.046875 -3.34375 -0.0507812 -3.890625 0.15625 -4.484375 C 0.363281 -5.023438 0.722656 -5.414062 1.234375 -5.65625 C 1.753906 -5.894531 2.335938 -6.070312 2.984375 -6.1875 C 3.640625 -6.300781 4.257812 -6.453125 4.84375 -6.640625 C 5.457031 -6.835938 5.851562 -7.132812 6.03125 -7.53125 C 6.21875 -7.925781 6.253906 -8.320312 6.140625 -8.71875 C 6.035156 -9.125 5.847656 -9.390625 5.578125 -9.515625 C 5.304688 -9.640625 5.109375 -9.59375 4.984375 -9.375 C 4.867188 -9.15625 4.785156 -8.882812 4.734375 -8.5625 C 4.679688 -8.238281 4.609375 -7.96875 4.515625 -7.75 C 4.390625 -7.40625 4.140625 -7.164062 3.765625 -7.03125 C 3.390625 -6.894531 2.988281 -6.851562 2.5625 -6.90625 C 2.144531 -6.957031 1.78125 -7.09375 1.46875 -7.3125 C 1.15625 -7.53125 0.988281 -7.820312 0.96875 -8.1875 C 0.957031 -8.550781 1.175781 -8.96875 1.625 -9.4375 C 1.96875 -9.78125 2.445312 -10.0625 3.0625 -10.28125 C 3.6875 -10.507812 4.441406 -10.625 5.328125 -10.625 Z M 4.078125 -4 C 4.128906 -3.613281 4.335938 -3.359375 4.703125 -3.234375 C 5.066406 -3.109375 5.410156 -3.070312 5.734375 -3.125 C 5.878906 -3.164062 5.992188 -3.242188 6.078125 -3.359375 C 6.160156 -3.472656 6.207031 -3.566406 6.21875 -3.640625 C 6.3125 -4.128906 6.351562 -4.5625 6.34375 -4.9375 C 6.332031 -5.320312 6.300781 -5.632812 6.25 -5.875 C 6.226562 -6 6.160156 -6.066406 6.046875 -6.078125 C 5.929688 -6.085938 5.78125 -6 5.59375 -5.8125 C 5.394531 -5.613281 5.171875 -5.429688 4.921875 -5.265625 C 4.671875 -5.109375 4.457031 -4.929688 4.28125 -4.734375 C 4.113281 -4.535156 4.046875 -4.289062 4.078125 -4 Z M 4.078125 -4 "/></g></g></g><g fill="#8b5e3c" fill-opacity="1"><g transform="translate(64.006469, 22.31855)"><g><path d="M 7.71875 -10.625 C 8.46875 -10.625 9.148438 -10.410156 9.765625 -9.984375 C 10.378906 -9.566406 10.863281 -9 11.21875 -8.28125 C 11.582031 -7.5625 11.765625 -6.769531 11.765625 -5.90625 C 11.765625 -5.050781 11.5625 -4.265625 11.15625 -3.546875 C 10.75 -2.828125 10.210938 -2.253906 9.546875 -1.828125 C 8.890625 -1.410156 8.179688 -1.203125 7.421875 -1.203125 C 6.753906 -1.203125 6.25 -1.257812 5.90625 -1.375 C 5.5625 -1.488281 5.34375 -1.582031 5.25 -1.65625 C 5.28125 -0.9375 5.34375 -0.304688 5.4375 0.234375 C 5.539062 0.785156 5.695312 1.171875 5.90625 1.390625 C 6.03125 1.515625 6.15625 1.613281 6.28125 1.6875 C 6.40625 1.757812 6.453125 1.882812 6.421875 2.0625 C 6.378906 2.332031 6.160156 2.535156 5.765625 2.671875 C 5.378906 2.804688 4.9375 2.894531 4.4375 2.9375 C 3.945312 2.988281 3.519531 3.015625 3.15625 3.015625 C 2.8125 3.015625 2.394531 2.988281 1.90625 2.9375 C 1.414062 2.894531 0.984375 2.804688 0.609375 2.671875 C 0.234375 2.535156 0.03125 2.332031 0 2.0625 C -0.0195312 1.863281 0.0195312 1.722656 0.125 1.640625 C 0.238281 1.554688 0.359375 1.453125 0.484375 1.328125 C 0.679688 1.148438 0.820312 0.820312 0.90625 0.34375 C 0.988281 -0.132812 1.039062 -0.671875 1.0625 -1.265625 C 1.082031 -1.867188 1.09375 -2.4375 1.09375 -2.96875 C 1.09375 -3.832031 1.082031 -4.601562 1.0625 -5.28125 C 1.039062 -5.96875 0.882812 -6.488281 0.59375 -6.84375 C 0.46875 -7.03125 0.332031 -7.191406 0.1875 -7.328125 C 0.0390625 -7.460938 -0.0195312 -7.628906 0 -7.828125 C 0.03125 -8.097656 0.1875 -8.347656 0.46875 -8.578125 C 0.75 -8.804688 1.078125 -9.007812 1.453125 -9.1875 C 1.828125 -9.375 2.164062 -9.546875 2.46875 -9.703125 C 2.6875 -9.816406 2.976562 -9.957031 3.34375 -10.125 C 3.707031 -10.300781 4.066406 -10.4375 4.421875 -10.53125 C 4.785156 -10.632812 5.085938 -10.65625 5.328125 -10.59375 C 5.578125 -10.539062 5.6875 -10.335938 5.65625 -9.984375 C 6.289062 -10.410156 6.976562 -10.625 7.71875 -10.625 Z M 6.25 -2.46875 C 6.757812 -2.707031 7.144531 -3.085938 7.40625 -3.609375 C 7.664062 -4.140625 7.820312 -4.726562 7.875 -5.375 C 7.9375 -6.03125 7.910156 -6.65625 7.796875 -7.25 C 7.691406 -7.851562 7.519531 -8.347656 7.28125 -8.734375 C 7.050781 -9.128906 6.769531 -9.328125 6.4375 -9.328125 C 6.164062 -9.328125 5.9375 -9.1875 5.75 -8.90625 C 5.5625 -8.625 5.457031 -8.347656 5.4375 -8.078125 C 5.363281 -7.472656 5.304688 -6.800781 5.265625 -6.0625 C 5.234375 -5.320312 5.21875 -4.5 5.21875 -3.59375 C 5.21875 -3.082031 5.359375 -2.75 5.640625 -2.59375 C 5.921875 -2.4375 6.125 -2.394531 6.25 -2.46875 Z M 6.25 -2.46875 "/></g></g></g><g fill="#8b5e3c" fill-opacity="1"><g transform="translate(76.046075, 22.31855)"><g><path d="M 7.71875 -10.625 C 8.46875 -10.625 9.148438 -10.410156 9.765625 -9.984375 C 10.378906 -9.566406 10.863281 -9 11.21875 -8.28125 C 11.582031 -7.5625 11.765625 -6.769531 11.765625 -5.90625 C 11.765625 -5.050781 11.5625 -4.265625 11.15625 -3.546875 C 10.75 -2.828125 10.210938 -2.253906 9.546875 -1.828125 C 8.890625 -1.410156 8.179688 -1.203125 7.421875 -1.203125 C 6.753906 -1.203125 6.25 -1.257812 5.90625 -1.375 C 5.5625 -1.488281 5.34375 -1.582031 5.25 -1.65625 C 5.28125 -0.9375 5.34375 -0.304688 5.4375 0.234375 C 5.539062 0.785156 5.695312 1.171875 5.90625 1.390625 C 6.03125 1.515625 6.15625 1.613281 6.28125 1.6875 C 6.40625 1.757812 6.453125 1.882812 6.421875 2.0625 C 6.378906 2.332031 6.160156 2.535156 5.765625 2.671875 C 5.378906 2.804688 4.9375 2.894531 4.4375 2.9375 C 3.945312 2.988281 3.519531 3.015625 3.15625 3.015625 C 2.8125 3.015625 2.394531 2.988281 1.90625 2.9375 C 1.414062 2.894531 0.984375 2.804688 0.609375 2.671875 C 0.234375 2.535156 0.03125 2.332031 0 2.0625 C -0.0195312 1.863281 0.0195312 1.722656 0.125 1.640625 C 0.238281 1.554688 0.359375 1.453125 0.484375 1.328125 C 0.679688 1.148438 0.820312 0.820312 0.90625 0.34375 C 0.988281 -0.132812 1.039062 -0.671875 1.0625 -1.265625 C 1.082031 -1.867188 1.09375 -2.4375 1.09375 -2.96875 C 1.09375 -3.832031 1.082031 -4.601562 1.0625 -5.28125 C 1.039062 -5.96875 0.882812 -6.488281 0.59375 -6.84375 C 0.46875 -7.03125 0.332031 -7.191406 0.1875 -7.328125 C 0.0390625 -7.460938 -0.0195312 -7.628906 0 -7.828125 C 0.03125 -8.097656 0.1875 -8.347656 0.46875 -8.578125 C 0.75 -8.804688 1.078125 -9.007812 1.453125 -9.1875 C 1.828125 -9.375 2.164062 -9.546875 2.46875 -9.703125 C 2.6875 -9.816406 2.976562 -9.957031 3.34375 -10.125 C 3.707031 -10.300781 4.066406 -10.4375 4.421875 -10.53125 C 4.785156 -10.632812 5.085938 -10.65625 5.328125 -10.59375 C 5.578125 -10.539062 5.6875 -10.335938 5.65625 -9.984375 C 6.289062 -10.410156 6.976562 -10.625 7.71875 -10.625 Z M 6.25 -2.46875 C 6.757812 -2.707031 7.144531 -3.085938 7.40625 -3.609375 C 7.664062 -4.140625 7.820312 -4.726562 7.875 -5.375 C 7.9375 -6.03125 7.910156 -6.65625 7.796875 -7.25 C 7.691406 -7.851562 7.519531 -8.347656 7.28125 -8.734375 C 7.050781 -9.128906 6.769531 -9.328125 6.4375 -9.328125 C 6.164062 -9.328125 5.9375 -9.1875 5.75 -8.90625 C 5.5625 -8.625 5.457031 -8.347656 5.4375 -8.078125 C 5.363281 -7.472656 5.304688 -6.800781 5.265625 -6.0625 C 5.234375 -5.320312 5.21875 -4.5 5.21875 -3.59375 C 5.21875 -3.082031 5.359375 -2.75 5.640625 -2.59375 C 5.921875 -2.4375 6.125 -2.394531 6.25 -2.46875 Z M 6.25 -2.46875 "/></g></g></g><g fill="#8b5e3c" fill-opacity="1"><g transform="translate(88.085681, 22.31855)"><g><path d="M 9.296875 -5.46875 C 9.492188 -5.695312 9.675781 -5.757812 9.84375 -5.65625 C 10.019531 -5.5625 10.09375 -5.398438 10.0625 -5.171875 L 10 -4.890625 C 9.84375 -4.179688 9.523438 -3.550781 9.046875 -3 C 8.578125 -2.445312 8 -2.007812 7.3125 -1.6875 C 6.625 -1.363281 5.875 -1.203125 5.0625 -1.203125 C 4.132812 -1.203125 3.289062 -1.410156 2.53125 -1.828125 C 1.769531 -2.253906 1.15625 -2.828125 0.6875 -3.546875 C 0.226562 -4.265625 0 -5.050781 0 -5.90625 C 0 -6.769531 0.226562 -7.5625 0.6875 -8.28125 C 1.15625 -9 1.769531 -9.566406 2.53125 -9.984375 C 3.289062 -10.410156 4.132812 -10.625 5.0625 -10.625 C 5.96875 -10.625 6.796875 -10.453125 7.546875 -10.109375 C 8.296875 -9.765625 8.832031 -9.273438 9.15625 -8.640625 C 9.363281 -8.242188 9.394531 -7.820312 9.25 -7.375 C 9.101562 -6.9375 8.835938 -6.523438 8.453125 -6.140625 C 8.078125 -5.765625 7.632812 -5.457031 7.125 -5.21875 C 6.613281 -4.976562 6.101562 -4.859375 5.59375 -4.859375 C 5.363281 -4.859375 5.132812 -4.875 4.90625 -4.90625 C 4.675781 -4.945312 4.472656 -5.003906 4.296875 -5.078125 C 4.566406 -4.484375 4.988281 -4.101562 5.5625 -3.9375 C 6.132812 -3.78125 6.753906 -3.832031 7.421875 -4.09375 C 8.085938 -4.351562 8.710938 -4.8125 9.296875 -5.46875 Z M 5.0625 -9.5625 C 4.820312 -9.5625 4.625 -9.394531 4.46875 -9.0625 C 4.3125 -8.726562 4.195312 -8.328125 4.125 -7.859375 C 4.0625 -7.398438 4.03125 -6.972656 4.03125 -6.578125 C 4.03125 -6.304688 4.054688 -6.046875 4.109375 -5.796875 C 4.117188 -5.828125 4.171875 -5.863281 4.265625 -5.90625 C 4.679688 -6.15625 4.984375 -6.484375 5.171875 -6.890625 C 5.367188 -7.296875 5.484375 -7.703125 5.515625 -8.109375 C 5.554688 -8.523438 5.53125 -8.867188 5.4375 -9.140625 C 5.34375 -9.421875 5.21875 -9.5625 5.0625 -9.5625 Z M 5.0625 -9.5625 "/></g></g></g><g fill="#8b5e3c" fill-opacity="1"><g transform="translate(98.385931, 22.31855)"><g><path d="M 10.734375 -9.40625 C 10.921875 -9.164062 10.976562 -8.882812 10.90625 -8.5625 C 10.832031 -8.238281 10.679688 -7.921875 10.453125 -7.609375 C 10.222656 -7.304688 9.945312 -7.066406 9.625 -6.890625 C 9.3125 -6.722656 8.988281 -6.671875 8.65625 -6.734375 C 8.320312 -6.796875 8.007812 -7.035156 7.71875 -7.453125 C 7.5 -7.753906 7.265625 -8.039062 7.015625 -8.3125 C 6.773438 -8.59375 6.476562 -8.734375 6.125 -8.734375 C 5.988281 -8.734375 5.828125 -8.660156 5.640625 -8.515625 C 5.453125 -8.378906 5.335938 -8.078125 5.296875 -7.609375 C 5.265625 -7.035156 5.242188 -6.429688 5.234375 -5.796875 C 5.222656 -5.160156 5.265625 -4.570312 5.359375 -4.03125 C 5.460938 -3.5 5.644531 -3.097656 5.90625 -2.828125 C 6.03125 -2.703125 6.15625 -2.597656 6.28125 -2.515625 C 6.40625 -2.429688 6.453125 -2.304688 6.421875 -2.140625 C 6.378906 -1.867188 6.160156 -1.664062 5.765625 -1.53125 C 5.378906 -1.394531 4.9375 -1.304688 4.4375 -1.265625 C 3.945312 -1.222656 3.519531 -1.203125 3.15625 -1.203125 C 2.8125 -1.203125 2.394531 -1.222656 1.90625 -1.265625 C 1.414062 -1.304688 0.984375 -1.394531 0.609375 -1.53125 C 0.234375 -1.664062 0.03125 -1.867188 0 -2.140625 C -0.0195312 -2.328125 0.0195312 -2.460938 0.125 -2.546875 C 0.238281 -2.640625 0.359375 -2.75 0.484375 -2.875 C 0.628906 -3.007812 0.742188 -3.25 0.828125 -3.59375 C 0.910156 -3.945312 0.957031 -4.34375 0.96875 -4.78125 C 0.988281 -5.21875 0.96875 -5.625 0.90625 -6 C 0.84375 -6.382812 0.738281 -6.664062 0.59375 -6.84375 C 0.46875 -7.03125 0.332031 -7.191406 0.1875 -7.328125 C 0.0390625 -7.460938 -0.0195312 -7.628906 0 -7.828125 C 0.03125 -8.097656 0.1875 -8.347656 0.46875 -8.578125 C 0.75 -8.804688 1.078125 -9.007812 1.453125 -9.1875 C 1.828125 -9.375 2.164062 -9.546875 2.46875 -9.703125 C 2.707031 -9.816406 3.019531 -9.960938 3.40625 -10.140625 C 3.800781 -10.316406 4.179688 -10.457031 4.546875 -10.5625 C 4.921875 -10.664062 5.21875 -10.664062 5.4375 -10.5625 C 5.65625 -10.457031 5.707031 -10.191406 5.59375 -9.765625 C 5.59375 -9.722656 5.585938 -9.675781 5.578125 -9.625 C 5.578125 -9.570312 5.566406 -9.5 5.546875 -9.40625 C 5.859375 -9.769531 6.25 -10.0625 6.71875 -10.28125 C 7.1875 -10.507812 7.648438 -10.625 8.109375 -10.625 C 8.773438 -10.625 9.320312 -10.5 9.75 -10.25 C 10.1875 -10 10.515625 -9.71875 10.734375 -9.40625 Z M 10.734375 -9.40625 "/></g></g></g><g clip-path="url(#b50a4ce6ec)"><g clip-path="url(#c18d3d10b6)"><path fill="#f5e9dc" d="M 20.476562 6.03125 L 22.460938 6.03125 L 22.460938 8.089844 L 20.476562 8.089844 Z M 20.476562 6.03125 " fill-opacity="1" fill-rule="nonzero"/></g></g><g clip-path="url(#1a47afe560)"><g clip-path="url(#5d8d34ee6d)"><path fill="#f5e9dc" d="M 13.964844 4.300781 L 26.71875 4.300781 L 26.71875 13.574219 L 13.964844 13.574219 Z M 13.964844 4.300781 " fill-opacity="1" fill-rule="nonzero"/></g></g><g clip-path="url(#b83b87d01f)"><g clip-path="url(#f6f6f09c63)"><g clip-path="url(#59ed9eef3c)"><path fill="#f5e9dc" d="M 15.761719 11.621094 L 19.699219 10.078125 L 20.476562 12.058594 L 16.539062 13.601562 Z M 15.761719 11.621094 " fill-opacity="1" fill-rule="nonzero"/></g></g></g><g clip-path="url(#00e2c1ff6f)"><g clip-path="url(#b9adcd0216)"><g clip-path="url(#6e8a430382)"><path fill="#f5e9dc" d="M 23.074219 9.980469 L 24.464844 9.511719 L 25.089844 11.371094 L 23.699219 11.839844 Z M 23.074219 9.980469 " fill-opacity="1" fill-rule="nonzero"/></g></g></g><g clip-path="url(#05e9981417)"><g clip-path="url(#9a8d677691)"><path fill="#f5e9dc" d="M 16.421875 4.015625 L 26.167969 4.015625 L 26.167969 15.324219 L 16.421875 15.324219 Z M 16.421875 4.015625 " fill-opacity="1" fill-rule="nonzero"/></g></g><g clip-path="url(#da6cd60553)"><g clip-path="url(#3d94e045f1)"><path fill="#f5e9dc" d="M 17.242188 7.363281 L 25.28125 7.363281 L 25.28125 15.25 L 17.242188 15.25 Z M 17.242188 7.363281 " fill-opacity="1" fill-rule="nonzero"/></g></g><g clip-path="url(#9e53db0f27)"><g clip-path="url(#d73c46fe77)"><path fill="#f5e9dc" d="M 17.09375 7.289062 L 25.132812 7.289062 L 25.132812 15.175781 L 17.09375 15.175781 Z M 17.09375 7.289062 " fill-opacity="1" fill-rule="nonzero"/></g></g><g clip-path="url(#b549daae07)"><g clip-path="url(#811d8d6b73)"><path fill="#f5e9dc" d="M 17.167969 7.441406 L 25.207031 7.441406 L 25.207031 15.324219 L 17.167969 15.324219 Z M 17.167969 7.441406 " fill-opacity="1" fill-rule="nonzero"/></g></g><g clip-path="url(#773a2463ce)"><g clip-path="url(#58e2e347d7)"><path fill="#f5e9dc" d="M 17.167969 7.289062 L 25.207031 7.289062 L 25.207031 15.175781 L 17.167969 15.175781 Z M 17.167969 7.289062 " fill-opacity="1" fill-rule="nonzero"/></g></g><g clip-path="url(#c71eccc88e)"><g clip-path="url(#32ad43b925)"><path fill="#f5e9dc" d="M 17.242188 7.515625 L 25.28125 7.515625 L 25.28125 15.398438 L 17.242188 15.398438 Z M 17.242188 7.515625 " fill-opacity="1" fill-rule="nonzero"/></g></g><g clip-path="url(#0b5318592f)"><g clip-path="url(#f53abfb6be)"><path fill="#f5e9dc" d="M 17.09375 7.515625 L 25.132812 7.515625 L 25.132812 15.398438 L 17.09375 15.398438 Z M 17.09375 7.515625 " fill-opacity="1" fill-rule="nonzero"/></g></g><g clip-path="url(#6109be26a1)"><g clip-path="url(#e62c23ff24)"><path fill="#f5e9dc" d="M 17.242188 7.738281 L 25.28125 7.738281 L 25.28125 15.621094 L 17.242188 15.621094 Z M 17.242188 7.738281 " fill-opacity="1" fill-rule="nonzero"/></g></g><g clip-path="url(#bbcc7568d7)"><g clip-path="url(#5fb229dcdd)"><path fill="#f5e9dc" d="M 16.347656 7.066406 L 24.390625 7.066406 L 24.390625 14.953125 L 16.347656 14.953125 Z M 16.347656 7.066406 " fill-opacity="1" fill-rule="nonzero"/></g></g><g clip-path="url(#4fc0bfdb3b)"><g clip-path="url(#25882c35a6)"><path fill="#f5e9dc" d="M 16.125 7.066406 L 24.167969 7.066406 L 24.167969 14.953125 L 16.125 14.953125 Z M 16.125 7.066406 " fill-opacity="1" fill-rule="nonzero"/><path fill="#f5e9dc" d="M 16.125 7.066406 L 24.167969 7.066406 L 24.167969 14.953125 L 16.125 14.953125 Z M 16.125 7.066406 " fill-opacity="1" fill-rule="nonzero"/><path fill="#f5e9dc" d="M 16.125 7.066406 L 24.167969 7.066406 L 24.167969 14.953125 L 16.125 14.953125 Z M 16.125 7.066406 " fill-opacity="1" fill-rule="nonzero"/></g></g><g clip-path="url(#68f1e33fa3)"><g clip-path="url(#b14aeeeb8f)"><path fill="#f5e9dc" d="M 16.125 7.140625 L 24.167969 7.140625 L 24.167969 15.027344 L 16.125 15.027344 Z M 16.125 7.140625 " fill-opacity="1" fill-rule="nonzero"/></g></g><g clip-path="url(#5d2671f533)"><g clip-path="url(#ac6f8800fc)"><path fill="#f5e9dc" d="M 14.042969 7.738281 L 22.082031 7.738281 L 22.082031 15.621094 L 14.042969 15.621094 Z M 14.042969 7.738281 " fill-opacity="1" fill-rule="nonzero"/><path fill="#f5e9dc" d="M 14.042969 7.738281 L 22.082031 7.738281 L 22.082031 15.621094 L 14.042969 15.621094 Z M 14.042969 7.738281 " fill-opacity="1" fill-rule="nonzero"/></g></g><g clip-path="url(#59482bb31a)"><g clip-path="url(#3fe7e610b3)"><path fill="#f5e9dc" d="M 13.746094 7.664062 L 21.785156 7.664062 L 21.785156 15.546875 L 13.746094 15.546875 Z M 13.746094 7.664062 " fill-opacity="1" fill-rule="nonzero"/></g></g><g clip-path="url(#eff46d36f4)"><g clip-path="url(#ec72dced63)"><path fill="#f5e9dc" d="M 14.191406 8.925781 L 20.890625 8.925781 L 20.890625 15.398438 L 14.191406 15.398438 Z M 14.191406 8.925781 " fill-opacity="1" fill-rule="nonzero"/></g></g><g clip-path="url(#9680b4056a)"><g clip-path="url(#d43c1dbc7b)"><path fill="#f5e9dc" d="M 14.265625 9 L 20.964844 9 L 20.964844 15.472656 L 14.265625 15.472656 Z M 14.265625 9 " fill-opacity="1" fill-rule="nonzero"/></g></g><g clip-path="url(#f2a5b18e73)"><g clip-path="url(#e937f7c30c)"><path fill="#f5e9dc" d="M 14.339844 8.925781 L 21.039062 8.925781 L 21.039062 15.398438 L 14.339844 15.398438 Z M 14.339844 8.925781 " fill-opacity="1" fill-rule="nonzero"/></g></g><g clip-path="url(#f42e5b91aa)"><g clip-path="url(#8cb6ccb047)"><path fill="#f5e9dc" d="M 19.996094 5.207031 L 26.695312 5.207031 L 26.695312 11.679688 L 19.996094 11.679688 Z M 19.996094 5.207031 " fill-opacity="1" fill-rule="nonzero"/></g></g><g clip-path="url(#cb5020c9c6)"><g clip-path="url(#4a2fd62f90)"><path fill="#f5e9dc" d="M 14.117188 9.152344 L 20.816406 9.152344 L 20.816406 15.621094 L 14.117188 15.621094 Z M 14.117188 9.152344 " fill-opacity="1" fill-rule="nonzero"/><path fill="#f5e9dc" d="M 14.117188 9.152344 L 20.816406 9.152344 L 20.816406 15.621094 L 14.117188 15.621094 Z M 14.117188 9.152344 " fill-opacity="1" fill-rule="nonzero"/></g></g><g clip-path="url(#9d9b0a1cf4)"><g clip-path="url(#8767fa6e0d)"><path fill="#f5e9dc" d="M 45.808594 -0.519531 L 52.511719 -0.519531 L 52.511719 5.953125 L 45.808594 5.953125 Z M 45.808594 -0.519531 " fill-opacity="1" fill-rule="nonzero"/></g></g><g clip-path="url(#7d8d120461)"><g clip-path="url(#d958fe5542)"><path fill="#f5e9dc" d="M 14.265625 9.078125 L 20.964844 9.078125 L 20.964844 15.546875 L 14.265625 15.546875 Z M 14.265625 9.078125 " fill-opacity="1" fill-rule="nonzero"/></g></g><g clip-path="url(#7b6ef87d13)"><g clip-path="url(#798fc40524)"><path fill="#f5e9dc" d="M 15.085938 9 L 21.785156 9 L 21.785156 15.472656 L 15.085938 15.472656 Z M 15.085938 9 " fill-opacity="1" fill-rule="nonzero"/></g></g><g clip-path="url(#2a9ee11a49)"><g clip-path="url(#11060110fc)"><path fill="#f5e9dc" d="M 14.9375 9.078125 L 21.636719 9.078125 L 21.636719 15.546875 L 14.9375 15.546875 Z M 14.9375 9.078125 " fill-opacity="1" fill-rule="nonzero"/><path fill="#f5e9dc" d="M 14.9375 9.078125 L 21.636719 9.078125 L 21.636719 15.546875 L 14.9375 15.546875 Z M 14.9375 9.078125 " fill-opacity="1" fill-rule="nonzero"/><path fill="#f5e9dc" d="M 14.9375 9.078125 L 21.636719 9.078125 L 21.636719 15.546875 L 14.9375 15.546875 Z M 14.9375 9.078125 " fill-opacity="1" fill-rule="nonzero"/></g></g><g clip-path="url(#efc97b3996)"><g clip-path="url(#72ff179f0e)"><path fill="#f5e9dc" d="M 14.785156 9.152344 L 21.488281 9.152344 L 21.488281 15.621094 L 14.785156 15.621094 Z M 14.785156 9.152344 " fill-opacity="1" fill-rule="nonzero"/><path fill="#f5e9dc" d="M 14.785156 9.152344 L 21.488281 9.152344 L 21.488281 15.621094 L 14.785156 15.621094 Z M 14.785156 9.152344 " fill-opacity="1" fill-rule="nonzero"/><path fill="#f5e9dc" d="M 14.785156 9.152344 L 21.488281 9.152344 L 21.488281 15.621094 L 14.785156 15.621094 Z M 14.785156 9.152344 " fill-opacity="1" fill-rule="nonzero"/></g></g><g clip-path="url(#1eeec1f521)"><g clip-path="url(#abfee2d043)"><path fill="#f5e9dc" d="M 14.710938 9 L 21.414062 9 L 21.414062 15.472656 L 14.710938 15.472656 Z M 14.710938 9 " fill-opacity="1" fill-rule="nonzero"/><path fill="#f5e9dc" d="M 14.710938 9 L 21.414062 9 L 21.414062 15.472656 L 14.710938 15.472656 Z M 14.710938 9 " fill-opacity="1" fill-rule="nonzero"/></g></g><g clip-path="url(#0d1a540bcc)"><g clip-path="url(#d2eefe8383)"><path fill="#f5e9dc" d="M 14.488281 9.152344 L 21.1875 9.152344 L 21.1875 15.621094 L 14.488281 15.621094 Z M 14.488281 9.152344 " fill-opacity="1" fill-rule="nonzero"/><path fill="#f5e9dc" d="M 14.488281 9.152344 L 21.1875 9.152344 L 21.1875 15.621094 L 14.488281 15.621094 Z M 14.488281 9.152344 " fill-opacity="1" fill-rule="nonzero"/></g></g><g clip-path="url(#a809241ae8)"><g clip-path="url(#14e7e366e2)"><path fill="#f5e9dc" d="M 14.339844 9 L 21.039062 9 L 21.039062 15.472656 L 14.339844 15.472656 Z M 14.339844 9 " fill-opacity="1" fill-rule="nonzero"/><path fill="#f5e9dc" d="M 14.339844 9 L 21.039062 9 L 21.039062 15.472656 L 14.339844 15.472656 Z M 14.339844 9 " fill-opacity="1" fill-rule="nonzero"/><path fill="#f5e9dc" d="M 14.339844 9 L 21.039062 9 L 21.039062 15.472656 L 14.339844 15.472656 Z M 14.339844 9 " fill-opacity="1" fill-rule="nonzero"/></g></g><g clip-path="url(#ca816fa069)"><g clip-path="url(#632bafb8be)"><path fill="#f5e9dc" d="M 14.265625 9.152344 L 20.964844 9.152344 L 20.964844 15.621094 L 14.265625 15.621094 Z M 14.265625 9.152344 " fill-opacity="1" fill-rule="nonzero"/><path fill="#f5e9dc" d="M 14.265625 9.152344 L 20.964844 9.152344 L 20.964844 15.621094 L 14.265625 15.621094 Z M 14.265625 9.152344 " fill-opacity="1" fill-rule="nonzero"/></g></g><g clip-path="url(#79024553ce)"><g clip-path="url(#ba95bb4490)"><path fill="#f5e9dc" d="M 14.710938 9.078125 L 21.414062 9.078125 L 21.414062 15.546875 L 14.710938 15.546875 Z M 14.710938 9.078125 " fill-opacity="1" fill-rule="nonzero"/><path fill="#f5e9dc" d="M 14.710938 9.078125 L 21.414062 9.078125 L 21.414062 15.546875 L 14.710938 15.546875 Z M 14.710938 9.078125 " fill-opacity="1" fill-rule="nonzero"/></g></g><g clip-path="url(#1bd33bfc35)"><g clip-path="url(#208fd81831)"><path fill="#f5e9dc" d="M 14.488281 9.152344 L 21.1875 9.152344 L 21.1875 15.621094 L 14.488281 15.621094 Z M 14.488281 9.152344 " fill-opacity="1" fill-rule="nonzero"/><path fill="#f5e9dc" d="M 14.488281 9.152344 L 21.1875 9.152344 L 21.1875 15.621094 L 14.488281 15.621094 Z M 14.488281 9.152344 " fill-opacity="1" fill-rule="nonzero"/></g></g><g clip-path="url(#c6b580a191)"><g clip-path="url(#28ab3dd435)"><path fill="#f5e9dc" d="M 14.488281 9.152344 L 21.1875 9.152344 L 21.1875 15.621094 L 14.488281 15.621094 Z M 14.488281 9.152344 " fill-opacity="1" fill-rule="nonzero"/><path fill="#f5e9dc" d="M 14.488281 9.152344 L 21.1875 9.152344 L 21.1875 15.621094 L 14.488281 15.621094 Z M 14.488281 9.152344 " fill-opacity="1" fill-rule="nonzero"/></g></g><g clip-path="url(#f76f7ddb9f)"><g clip-path="url(#274f6b3f07)"><path fill="#f5e9dc" d="M 14.414062 9.152344 L 21.113281 9.152344 L 21.113281 15.621094 L 14.414062 15.621094 Z M 14.414062 9.152344 " fill-opacity="1" fill-rule="nonzero"/><path fill="#f5e9dc" d="M 14.414062 9.152344 L 21.113281 9.152344 L 21.113281 15.621094 L 14.414062 15.621094 Z M 14.414062 9.152344 " fill-opacity="1" fill-rule="nonzero"/></g></g><g clip-path="url(#ebf79ab59e)"><g clip-path="url(#d8c930856a)"><path fill="#f5e9dc" d="M 14.5625 9.226562 L 21.265625 9.226562 L 21.265625 15.699219 L 14.5625 15.699219 Z M 14.5625 9.226562 " fill-opacity="1" fill-rule="nonzero"/><path fill="#f5e9dc" d="M 14.5625 9.226562 L 21.265625 9.226562 L 21.265625 15.699219 L 14.5625 15.699219 Z M 14.5625 9.226562 " fill-opacity="1" fill-rule="nonzero"/><path fill="#f5e9dc" d="M 14.5625 9.226562 L 21.265625 9.226562 L 21.265625 15.699219 L 14.5625 15.699219 Z M 14.5625 9.226562 " fill-opacity="1" fill-rule="nonzero"/></g></g><g clip-path="url(#dee40d4973)"><g clip-path="url(#0705dcadf3)"><path fill="#f5e9dc" d="M 14.414062 9.226562 L 21.113281 9.226562 L 21.113281 15.699219 L 14.414062 15.699219 Z M 14.414062 9.226562 " fill-opacity="1" fill-rule="nonzero"/><path fill="#f5e9dc" d="M 14.414062 9.226562 L 21.113281 9.226562 L 21.113281 15.699219 L 14.414062 15.699219 Z M 14.414062 9.226562 " fill-opacity="1" fill-rule="nonzero"/></g></g><g clip-path="url(#8d5edb5b83)"><g clip-path="url(#94ed4ef2e2)"><path fill="#f5e9dc" d="M 14.265625 9.375 L 20.964844 9.375 L 20.964844 15.847656 L 14.265625 15.847656 Z M 14.265625 9.375 " fill-opacity="1" fill-rule="nonzero"/></g></g><g clip-path="url(#f59002a6fb)"><g clip-path="url(#1ef60c8780)"><path fill="#f5e9dc" d="M 14.414062 9 L 21.113281 9 L 21.113281 15.472656 L 14.414062 15.472656 Z M 14.414062 9 " fill-opacity="1" fill-rule="nonzero"/></g></g><g clip-path="url(#8e243b0060)"><g clip-path="url(#cf10b8ef2c)"><path fill="#f5e9dc" d="M 16.722656 8.703125 L 23.421875 8.703125 L 23.421875 15.175781 L 16.722656 15.175781 Z M 16.722656 8.703125 " fill-opacity="1" fill-rule="nonzero"/><path fill="#f5e9dc" d="M 16.722656 8.703125 L 23.421875 8.703125 L 23.421875 15.175781 L 16.722656 15.175781 Z M 16.722656 8.703125 " fill-opacity="1" fill-rule="nonzero"/></g></g><g clip-path="url(#04091b3af3)"><g clip-path="url(#776685da10)"><path fill="#f5e9dc" d="M 14.117188 8.554688 L 20.816406 8.554688 L 20.816406 15.027344 L 14.117188 15.027344 Z M 14.117188 8.554688 " fill-opacity="1" fill-rule="nonzero"/></g></g><g clip-path="url(#0069dda5cb)"><g clip-path="url(#20a5821e23)"><path fill="#a7c957" d="M 15.34375 7.066406 L 19.882812 7.066406 L 19.882812 11.605469 L 15.34375 11.605469 Z M 15.34375 7.066406 " fill-opacity="1" fill-rule="nonzero"/></g></g></svg>